<?xml version="1.0" encoding="utf-8"?>
<!-- Generator: Adobe Illustrator 15.0.0, SVG Export Plug-In . SVG Version: 6.00 Build 0)  -->
<!DOCTYPE svg PUBLIC "-//W3C//DTD SVG 1.1//EN" "http://www.w3.org/Graphics/SVG/1.1/DTD/svg11.dtd">
<svg version="1.1" id="Layer_1" xmlns="http://www.w3.org/2000/svg" xmlns:xlink="http://www.w3.org/1999/xlink" x="0px" y="0px"
	 width="294px" height="99px" viewBox="0 0 294 99" enable-background="new 0 0 294 99" xml:space="preserve">
<g>
	<g>
		<path fill="#FFFFFF" d="M10.226,45.596c-0.072,0.145-0.145,0.289-0.217,0.415c-0.072,0.145-0.144,0.271-0.216,0.415
			c-0.072,0.126-0.144,0.271-0.216,0.415c-0.09,0.144-0.162,0.288-0.234,0.433c0.18,0.108,0.361,0.216,0.541,0.324
			c0.181,0.108,0.36,0.217,0.541,0.325c0.126,0.09,0.252,0.162,0.379,0.252c0.126,0.072,0.271,0.162,0.415,0.234
			c0.018-0.054,0.054-0.126,0.108-0.198c0.036-0.054,0.072-0.126,0.091-0.18c0.108-0.216,0.216-0.433,0.343-0.649
			c0.108-0.216,0.216-0.433,0.342-0.667L10.226,45.596z M12.101,48.392c-0.018,0.036-0.036,0.072-0.072,0.126
			c-0.018,0.054-0.036,0.09-0.054,0.126c-0.036,0.054-0.072,0.09-0.09,0.126c-0.018,0.036-0.036,0.072-0.072,0.108
			c0,0.018,0,0.018-0.018,0.036c0,0.019,0,0.019,0,0.036c-0.018,0.019-0.018,0.019-0.036,0.036
			c-0.019,0.072-0.055,0.145-0.091,0.198c-0.036,0.072-0.072,0.126-0.09,0.163l-1.605-0.956c-0.162,0.271-0.307,0.541-0.451,0.812
			c-0.162,0.288-0.307,0.559-0.469,0.848c0.325,0.18,0.631,0.379,0.938,0.576c0.306,0.199,0.631,0.38,0.938,0.578
			c0.018-0.019,0.018-0.036,0.036-0.055c0-0.036,0.018-0.054,0.036-0.107c0-0.019,0.018-0.036,0.036-0.072
			c0-0.019,0.018-0.055,0.054-0.072c0.036-0.09,0.091-0.181,0.162-0.289c0.055-0.108,0.108-0.216,0.163-0.288
			c0.018-0.072,0.036-0.108,0.054-0.126l1.605,0.992c0.108-0.198,0.198-0.396,0.306-0.577c0.108-0.198,0.216-0.396,0.307-0.577
			c0.054-0.072,0.09-0.162,0.144-0.271c0.054-0.09,0.108-0.18,0.145-0.271L12.101,48.392z M16.375,52.9
			c-0.09-0.47-0.198-0.775-0.379-0.92c-0.18,0.145-0.342,0.288-0.505,0.433c-0.162,0.144-0.324,0.288-0.469,0.433
			c-0.126,0.108-0.252,0.217-0.415,0.343c-0.144,0.126-0.271,0.253-0.414,0.379c0.216,0.181,0.396,0.379,0.522,0.577
			c0.126,0.181,0.198,0.396,0.198,0.613c0,0.072-0.036,0.126-0.126,0.162c-0.072,0.036-0.162,0.072-0.271,0.108
			c-0.108,0.018-0.252,0.035-0.396,0.054C13.977,55.1,13.832,55.1,13.688,55.1c-0.198,0-0.378-0.018-0.523-0.036
			c-0.162-0.035-0.252-0.071-0.289-0.126v-0.035c0.09-0.234,0.126-0.47,0.163-0.723c0.018-0.233,0.036-0.486,0.036-0.738
			c0-0.217,0-0.434-0.019-0.649c0-0.217-0.018-0.433-0.018-0.649c-0.019-0.036-0.019-0.054-0.019-0.09c0-0.019,0-0.055,0-0.072
			l-1.587,1.587c0.054,0.108,0.108,0.217,0.145,0.36c0.036,0.145,0.054,0.271,0.054,0.415c0,0.126,0,0.252-0.037,0.343
			c-0.036,0.09-0.09,0.162-0.18,0.234c-0.091,0.054-0.217,0.09-0.361,0.126c-0.162,0.018-0.36,0.036-0.595,0.036
			c-0.145,0-0.271,0-0.396-0.019c-0.145-0.018-0.234-0.054-0.325-0.09v-0.036c-0.09-0.414-0.216-0.848-0.396-1.279
			c-0.181-0.434-0.379-0.902-0.631-1.371c-0.054,0.054-0.108,0.126-0.162,0.18c-0.054,0.055-0.108,0.127-0.181,0.199
			c-0.09,0.09-0.162,0.198-0.252,0.288c-0.09,0.108-0.162,0.217-0.252,0.307c-0.108,0.145-0.216,0.271-0.325,0.379
			C7.43,53.766,7.34,53.874,7.231,54c-0.018,0.019-0.054,0.054-0.09,0.108c-0.036,0.036-0.054,0.091-0.09,0.108
			c0.234,0.198,0.433,0.414,0.595,0.631c0.181,0.234,0.307,0.487,0.415,0.74c0.108,0.252,0.198,0.521,0.252,0.793
			c0.036,0.271,0.072,0.541,0.072,0.812c0,0.234-0.036,0.433-0.126,0.56c-0.108,0.144-0.271,0.287-0.469,0.433
			c-0.217,0.126-0.433,0.233-0.686,0.343c-0.252,0.107-0.523,0.18-0.794,0.252c-0.288,0.072-0.559,0.145-0.811,0.18
			c-0.271,0.055-0.505,0.091-0.74,0.109c-0.216,0.035-0.415,0.035-0.559,0.035c-1.948,0-2.922-0.686-2.922-2.037
			c0-0.884,0.325-1.877,0.956-2.958v-0.162c-0.181,0.162-0.397,0.396-0.613,0.703c-0.234,0.307-0.487,0.686-0.739,1.118
			c-0.289,0.469-0.487,0.956-0.649,1.461S0,58.221,0,58.707c0,0.469,0.072,0.901,0.216,1.299c0.144,0.396,0.361,0.757,0.667,1.046
			c0.288,0.306,0.667,0.541,1.136,0.721c0.469,0.181,1.01,0.271,1.642,0.271c0.36,0,0.739-0.035,1.118-0.107
			c0.396-0.072,0.775-0.181,1.154-0.289c0.378-0.126,0.74-0.252,1.1-0.415c0.343-0.144,0.649-0.306,0.938-0.469
			c0.541-0.378,0.974-0.829,1.281-1.335c0.324-0.504,0.486-1.027,0.522-1.586v-0.036c0.108,0.018,0.217,0.018,0.343,0.018
			c0.108,0,0.234,0,0.325,0c0.198,0,0.397-0.018,0.577-0.036c0.163-0.018,0.325-0.054,0.487-0.126
			c0.145-0.054,0.289-0.126,0.433-0.217c0.145-0.108,0.289-0.234,0.415-0.378c0.126,0.162,0.271,0.288,0.451,0.396
			c0.18,0.107,0.379,0.181,0.577,0.252c0.216,0.055,0.433,0.108,0.667,0.127c0.234,0.018,0.469,0.036,0.685,0.036
			s0.433,0,0.649-0.019c0.199-0.018,0.378-0.018,0.541-0.036l0.036-0.018c0.018,0,0.054,0,0.072,0c0.036,0,0.055,0,0.09,0
			c0.072-0.145,0.126-0.343,0.181-0.577c0.054-0.253,0.09-0.523,0.108-0.794c0.036-0.271,0.054-0.559,0.072-0.847
			c0-0.289,0-0.56,0-0.794C16.483,54,16.447,53.369,16.375,52.9L16.375,52.9z M21.77,54.902h-0.757
			c-0.126,0-0.234-0.055-0.307-0.127c-0.054-0.072-0.108-0.181-0.108-0.324V44.82c-0.054,0.036-0.108,0.091-0.145,0.145
			c-0.054,0.054-0.108,0.108-0.162,0.145c-0.108,0.108-0.217,0.216-0.325,0.342c-0.108,0.108-0.216,0.216-0.325,0.325
			c-0.162,0.18-0.324,0.343-0.487,0.505c-0.162,0.163-0.324,0.325-0.486,0.487v7.79c0,1.029,0.18,1.804,0.523,2.345
			c0.342,0.541,0.83,0.812,1.497,0.812h1.082V54.902z M25.287,47.273c-0.036,0.036-0.054,0.09-0.09,0.162s-0.072,0.145-0.126,0.217
			c0,0.018,0,0.018,0,0.036c-0.018,0-0.018,0.018-0.018,0.036c-0.018,0.036-0.054,0.072-0.072,0.108
			c-0.019,0.036-0.036,0.072-0.055,0.126c-0.036,0.054-0.054,0.108-0.072,0.163c-0.037,0.054-0.054,0.09-0.072,0.126v-0.018
			l-1.641-0.956c-0.162,0.288-0.324,0.577-0.487,0.901c-0.072,0.126-0.144,0.234-0.198,0.361c-0.072,0.126-0.144,0.252-0.198,0.378
			c0.126,0.072,0.252,0.163,0.379,0.235c0.126,0.09,0.252,0.18,0.396,0.252c0.163,0.126,0.343,0.234,0.523,0.343
			c0.162,0.108,0.343,0.234,0.541,0.343l0.072-0.181c0.018-0.036,0.054-0.072,0.072-0.09c0.018-0.036,0.036-0.055,0.036-0.09
			c0.036-0.054,0.072-0.108,0.09-0.163c0.036-0.054,0.054-0.108,0.09-0.162c0.036-0.072,0.072-0.126,0.108-0.198
			c0.036-0.054,0.054-0.108,0.09-0.163v0.018l1.605,1.028c0.072-0.145,0.162-0.289,0.234-0.433s0.145-0.289,0.216-0.415
			c0.072-0.145,0.144-0.289,0.216-0.433s0.145-0.289,0.234-0.433L25.287,47.273z M28.28,54.902h-0.848v-0.037
			c-0.018-0.271-0.054-0.576-0.144-0.901c-0.072-0.324-0.163-0.649-0.252-0.974c-0.145-0.379-0.307-0.775-0.469-1.172
			c-0.181-0.397-0.379-0.794-0.577-1.154c-0.09,0.198-0.181,0.379-0.271,0.559c-0.09,0.181-0.181,0.379-0.289,0.559
			c-0.054,0.127-0.09,0.235-0.145,0.344c-0.054,0.09-0.108,0.198-0.144,0.288c-0.054,0.108-0.108,0.234-0.162,0.343
			c-0.072,0.126-0.126,0.252-0.181,0.36c0.108,0.019,0.234,0.091,0.36,0.198c0.126,0.108,0.253,0.234,0.361,0.379
			c0.126,0.162,0.216,0.325,0.307,0.486c0.072,0.182,0.126,0.344,0.162,0.488v0.035c-0.036,0.018-0.145,0.055-0.307,0.072
			c-0.163,0.036-0.361,0.055-0.613,0.055c-0.234,0.018-0.523,0.018-0.812,0.035c-0.307,0-0.613,0.019-0.92,0.019
			c-0.325,0-0.631,0.019-0.919,0.019c-0.307,0-0.577,0-0.812,0h-0.307v2.812h6.979V54.902z M30.283,46.426
			c-0.019,0.018-0.036,0.054-0.054,0.072c-0.018,0.018-0.018,0.054-0.037,0.072c-0.126,0.252-0.27,0.505-0.396,0.757
			c-0.126,0.253-0.271,0.487-0.415,0.739c0.108,0.072,0.216,0.145,0.325,0.217c0.126,0.072,0.234,0.145,0.324,0.198
			c0.217,0.145,0.415,0.253,0.613,0.379c0.198,0.108,0.396,0.234,0.613,0.36c0.036-0.054,0.072-0.126,0.108-0.198
			c0.036-0.054,0.072-0.126,0.108-0.198c0.108-0.198,0.216-0.415,0.343-0.631c0.108-0.216,0.234-0.433,0.343-0.649L30.283,46.426z
			 M34.792,54.902h-0.848v-0.037c-0.019-0.271-0.055-0.576-0.145-0.901c-0.072-0.324-0.162-0.649-0.253-0.974
			c-0.144-0.379-0.306-0.775-0.469-1.172c-0.18-0.397-0.379-0.794-0.577-1.154c-0.09,0.198-0.18,0.379-0.271,0.559
			c-0.09,0.181-0.18,0.379-0.288,0.559c-0.055,0.127-0.091,0.235-0.145,0.344c-0.054,0.09-0.108,0.198-0.145,0.288
			c-0.054,0.108-0.108,0.234-0.162,0.343c-0.072,0.126-0.126,0.252-0.18,0.36c0.108,0.019,0.234,0.091,0.361,0.198
			c0.126,0.108,0.252,0.234,0.36,0.379c0.126,0.162,0.216,0.325,0.307,0.486c0.072,0.182,0.126,0.344,0.162,0.488v0.035
			c-0.036,0.018-0.144,0.055-0.307,0.072c-0.162,0.036-0.36,0.055-0.613,0.055c-0.235,0.018-0.523,0.018-0.812,0.035
			c-0.306,0-0.613,0.019-0.919,0.019c-0.325,0-0.631,0.019-0.919,0.019c-0.307,0-0.577,0-0.812,0h-0.307v2.812h6.98V54.902z
			 M37.876,59.32c-0.036,0.054-0.054,0.09-0.072,0.145c-0.036,0.035-0.054,0.072-0.072,0.126c-0.018,0.036-0.036,0.072-0.072,0.108
			c-0.036,0.054-0.054,0.09-0.072,0.126c-0.036,0.072-0.091,0.162-0.126,0.253c-0.018,0.036-0.036,0.054-0.054,0.09
			c0,0.018-0.018,0.054-0.036,0.09V60.24l-1.515-0.92l-0.902,1.659c0.271,0.162,0.523,0.324,0.793,0.487
			c0.271,0.162,0.523,0.324,0.775,0.486c0.036,0.036,0.09,0.072,0.145,0.09c0.054,0.037,0.108,0.072,0.162,0.108
			c0.072-0.108,0.145-0.253,0.234-0.433c0.09-0.181,0.162-0.342,0.253-0.523v0.019l1.515,0.92c0.09-0.145,0.162-0.288,0.234-0.415
			c0.072-0.145,0.144-0.289,0.216-0.415c0.072-0.144,0.144-0.288,0.216-0.433c0.091-0.162,0.162-0.307,0.234-0.433L37.876,59.32z
			 M41.303,54.902h-0.848v-0.037c-0.018-0.271-0.054-0.576-0.145-0.901c-0.072-0.324-0.162-0.649-0.252-0.974
			c-0.144-0.379-0.306-0.775-0.468-1.172c-0.181-0.397-0.379-0.794-0.577-1.154c-0.091,0.198-0.181,0.379-0.271,0.559
			c-0.091,0.181-0.181,0.379-0.289,0.559c-0.054,0.127-0.09,0.235-0.144,0.344c-0.054,0.09-0.108,0.198-0.144,0.288
			c-0.055,0.108-0.108,0.234-0.163,0.343c-0.072,0.126-0.126,0.252-0.18,0.36c0.108,0.019,0.234,0.091,0.36,0.198
			c0.126,0.108,0.253,0.234,0.361,0.379c0.126,0.162,0.216,0.325,0.306,0.486c0.072,0.182,0.126,0.344,0.163,0.488v0.035
			c-0.037,0.018-0.145,0.055-0.307,0.072c-0.162,0.036-0.361,0.055-0.613,0.055c-0.234,0.018-0.523,0.018-0.812,0.035
			c-0.307,0-0.613,0.019-0.92,0.019c-0.325,0-0.631,0.019-0.92,0.019c-0.307,0-0.577,0-0.812,0h-0.307v2.812h6.979V54.902z
			 M49.942,54.902H48.95v-0.019c-0.163-0.307-0.361-0.649-0.613-1.028c-0.271-0.36-0.559-0.721-0.884-1.1
			c-0.162-0.145-0.325-0.325-0.505-0.505c-0.181-0.181-0.379-0.36-0.56-0.541c-0.036-0.055-0.09-0.091-0.144-0.145
			c-0.055-0.054-0.091-0.091-0.145-0.145c-0.198-0.198-0.415-0.414-0.649-0.631c-0.234-0.234-0.469-0.451-0.703-0.667
			c-0.253-0.216-0.487-0.433-0.722-0.631c-0.234-0.198-0.451-0.378-0.667-0.522v-0.072l5.104-2.074
			c0.019-0.036,0.054-0.145,0.126-0.289c0.054-0.144,0.126-0.324,0.216-0.523c0.09-0.198,0.181-0.415,0.271-0.649
			c0.09-0.216,0.198-0.433,0.271-0.631c0.09-0.198,0.162-0.361,0.217-0.487c0.054-0.144,0.09-0.216,0.108-0.234
			c-2.453,0.992-4.328,1.804-5.645,2.417c-1.334,0.631-2.074,1.046-2.236,1.28c-0.162,0.252-0.288,0.523-0.378,0.775
			c-0.108,0.271-0.163,0.523-0.163,0.739c0,0.253,0.055,0.505,0.145,0.722c0.072,0.234,0.198,0.451,0.379,0.667
			c0.162,0.217,0.36,0.434,0.577,0.631c0.234,0.199,0.469,0.397,0.757,0.596c0-0.036,0.019-0.108,0.036-0.181
			c0.019-0.071,0.036-0.144,0.055-0.216c0.018-0.036,0.018-0.091,0.036-0.127c0.018-0.035,0.018-0.09,0.036-0.126v-0.018
			c0.144,0.09,0.307,0.216,0.505,0.378c0.199,0.181,0.415,0.361,0.631,0.56c0.217,0.198,0.433,0.415,0.667,0.649
			s0.451,0.451,0.667,0.667c0.198,0.217,0.397,0.433,0.559,0.613c0.162,0.198,0.307,0.36,0.415,0.505v0.036
			c-0.036,0.072-0.199,0.144-0.451,0.181c-0.271,0.036-0.613,0.072-1.064,0.09c-0.451,0.036-0.992,0.036-1.605,0.036
			c-0.631,0.019-1.316,0.019-2.074,0.019h-0.667v2.812h3.841c0.325,0,0.649,0,0.938,0c0.306,0,0.559,0,0.793,0.019
			c0.234,0,0.415,0,0.559,0c0.144,0,0.216,0,0.234,0c0.144,0,0.307,0,0.487,0c0.18-0.019,0.361-0.019,0.541-0.019h1.695V54.902z
			 M54.523,54.09c0.181-0.09,0.343-0.144,0.523-0.144c0.145,0,0.271,0.036,0.415,0.09c0.144,0.072,0.271,0.163,0.378,0.271
			c0.108,0.108,0.217,0.234,0.289,0.396c0.09,0.145,0.144,0.307,0.18,0.486c-0.036,0.02-0.072,0.02-0.108,0.02
			c-0.036,0-0.072,0-0.09,0c-0.162,0-0.324-0.02-0.505-0.055c-0.198-0.036-0.378-0.091-0.577-0.145
			c-0.18-0.072-0.36-0.145-0.541-0.216c-0.162-0.073-0.307-0.145-0.415-0.217C54.217,54.343,54.361,54.18,54.523,54.09L54.523,54.09
			z M56.958,57.715c0.126-0.09,0.234-0.217,0.343-0.396c0.09-0.162,0.181-0.343,0.234-0.559c0.072-0.199,0.126-0.415,0.162-0.65
			c0.037-0.233,0.055-0.45,0.055-0.666c0-0.145,0-0.271-0.018-0.361c0-0.108-0.037-0.198-0.072-0.307
			c-0.126-0.414-0.289-0.829-0.487-1.227c-0.181-0.396-0.397-0.739-0.613-1.046c-0.217-0.288-0.433-0.54-0.667-0.722
			c-0.234-0.18-0.468-0.27-0.721-0.27c-0.325,0-0.686,0.198-1.028,0.595c-0.36,0.379-0.703,0.974-1.027,1.749
			c-0.09,0.198-0.163,0.361-0.253,0.506c-0.072,0.144-0.144,0.233-0.216,0.288c-0.126,0.09-1.172,0.126-3.156,0.126v2.939h2.146
			c0.18,0,0.342,0,0.487-0.018c0.145,0,0.271-0.036,0.396-0.108c0.126-0.054,0.234-0.145,0.343-0.288
			c0.09-0.127,0.181-0.308,0.271-0.56v0.019c0.145,0.107,0.289,0.216,0.415,0.307c0.144,0.107,0.252,0.216,0.379,0.306
			c0.126,0.108,0.252,0.217,0.378,0.325s0.252,0.198,0.397,0.289c0.126,0.072,0.271,0.144,0.415,0.198
			c0.144,0.054,0.307,0.071,0.469,0.071L56.958,57.715z M72.992,54.902h-0.884c-0.252,0-0.523,0.071-0.848,0.252
			c-0.324,0.181-0.613,0.434-0.901,0.758c-0.271,0.343-0.505,0.739-0.704,1.227c-0.199,0.469-0.289,1.01-0.289,1.604
			c0,0.181,0.036,0.36,0.126,0.541s0.216,0.36,0.361,0.522c0.144,0.162,0.306,0.325,0.487,0.451c0.18,0.145,0.378,0.253,0.577,0.343
			v0.054c-0.163,0.091-0.361,0.181-0.577,0.271c-0.235,0.072-0.469,0.144-0.74,0.216c-0.252,0.054-0.541,0.108-0.829,0.126
			c-0.289,0.036-0.596,0.055-0.884,0.055c-0.415,0-0.83-0.036-1.245-0.108c-0.397-0.072-0.757-0.181-1.082-0.343
			s-0.577-0.378-0.775-0.631c-0.199-0.271-0.289-0.596-0.289-0.975c0-0.09,0-0.216,0.036-0.342c0.036-0.127,0.072-0.271,0.145-0.415
			c0.054-0.145,0.108-0.288,0.18-0.45c0.072-0.146,0.126-0.307,0.199-0.451c0.126-0.289,0.252-0.56,0.361-0.812
			c0.09-0.27,0.144-0.486,0.144-0.666c0-0.072-0.018-0.127-0.036-0.181c-0.037-0.055-0.072-0.108-0.163-0.145
			c-0.288,0.271-0.577,0.577-0.848,0.92c-0.288,0.343-0.522,0.703-0.739,1.1c-0.234,0.397-0.396,0.812-0.522,1.227
			c-0.126,0.415-0.199,0.829-0.199,1.244c0,0.433,0.054,0.83,0.18,1.19c0.126,0.343,0.289,0.667,0.523,0.938
			c0.216,0.27,0.469,0.505,0.775,0.703c0.289,0.216,0.613,0.378,0.974,0.505c0.343,0.126,0.722,0.216,1.118,0.288
			c0.396,0.054,0.793,0.091,1.19,0.091c0.559,0,1.1-0.055,1.641-0.163c0.542-0.108,1.046-0.253,1.516-0.45
			c0.469-0.217,0.901-0.451,1.262-0.74c0.378-0.307,0.667-0.631,0.866-0.992c0.144-0.469,0.234-0.901,0.307-1.316
			c0.072-0.414,0.144-0.811,0.198-1.208c-0.072-0.018-0.181-0.036-0.361-0.09c-0.162-0.054-0.342-0.126-0.541-0.198
			c-0.199-0.072-0.397-0.162-0.614-0.253c-0.198-0.071-0.397-0.162-0.559-0.234c-0.18-0.072-0.324-0.144-0.433-0.198
			c-0.108-0.054-0.162-0.072-0.162-0.09c0-0.09,0.054-0.145,0.162-0.198c0.108-0.055,0.252-0.091,0.415-0.108
			c0.18-0.036,0.36-0.036,0.541-0.036c0.198-0.019,0.378-0.019,0.541-0.019h0.396V54.902z M75.013,46.426
			c-0.037,0.09-0.09,0.162-0.144,0.271c-0.055,0.09-0.091,0.18-0.145,0.252c-0.09,0.198-0.198,0.378-0.289,0.559
			c-0.108,0.198-0.216,0.379-0.325,0.577c0.09,0.054,0.181,0.108,0.271,0.162s0.162,0.108,0.253,0.162
			c0.216,0.145,0.45,0.289,0.667,0.415c0.216,0.145,0.451,0.271,0.685,0.415c0.126-0.217,0.235-0.433,0.361-0.649
			c0.108-0.234,0.216-0.451,0.343-0.667c0.018-0.055,0.054-0.108,0.09-0.181c0.054-0.072,0.072-0.145,0.108-0.198L75.013,46.426z
			 M78.602,54.234c-0.072-0.396-0.181-0.848-0.325-1.353c-0.145-0.469-0.307-0.884-0.487-1.263c-0.18-0.379-0.378-0.703-0.577-0.955
			c-0.018,0.018-0.018,0.035-0.036,0.054c0,0.036-0.018,0.054-0.018,0.091l-0.054,0.107c-0.198,0.361-0.378,0.739-0.541,1.082
			c-0.163,0.361-0.342,0.74-0.541,1.118c0.126,0.019,0.252,0.072,0.378,0.181c0.145,0.108,0.271,0.234,0.379,0.396
			c0.108,0.162,0.217,0.325,0.307,0.506c0.072,0.18,0.126,0.359,0.145,0.521c0,0.037-0.072,0.073-0.181,0.091
			c-0.108,0.019-0.252,0.054-0.433,0.054c-0.181,0.019-0.396,0.037-0.649,0.037c-0.234,0-0.487,0.018-0.757,0.018s-0.541,0-0.812,0
			c-0.271,0-0.523-0.018-0.776-0.018H73.39c-0.054,0-0.108,0-0.18,0c-0.055,0-0.108,0-0.163,0h-0.505v2.812h5.591
			c0.397,0,0.596-0.829,0.596-2.525C78.729,54.956,78.674,54.631,78.602,54.234L78.602,54.234z M82.787,44.803
			c-0.126,0.108-0.234,0.234-0.361,0.36c-0.108,0.108-0.234,0.234-0.36,0.379v-0.018c-0.036,0.036-0.072,0.09-0.108,0.126
			s-0.09,0.072-0.126,0.126c-0.108,0.108-0.217,0.234-0.325,0.343c-0.09,0.108-0.216,0.217-0.324,0.325
			c-0.054,0.054-0.108,0.108-0.162,0.162c-0.055,0.054-0.108,0.108-0.163,0.163v10.929c0.289-0.325,0.56-0.649,0.83-0.992
			c0.018-0.036,0.054-0.072,0.072-0.09c0.018-0.036,0.036-0.055,0.072-0.09c0.162-0.199,0.324-0.396,0.486-0.577
			c0.163-0.198,0.325-0.397,0.469-0.596V44.803z"/>
		<path fill="#FFFFFF" d="M90.958,54.902h-0.631v-0.037c-0.198-0.612-0.469-1.154-0.775-1.587s-0.649-0.775-1.01-1.01
			c-0.198,0.415-0.397,0.83-0.613,1.227c-0.09,0.216-0.198,0.415-0.307,0.613c-0.09,0.217-0.198,0.433-0.307,0.649
			c0.613,0.432,1.1,0.812,1.442,1.118s0.523,0.595,0.523,0.848c0,0.324-0.09,0.667-0.252,0.991c-0.18,0.324-0.433,0.613-0.776,0.866
			c-0.343,0.252-0.775,0.469-1.28,0.613c-0.505,0.162-1.082,0.253-1.749,0.253c-0.181,0-0.379-0.02-0.631-0.02
			s-0.505-0.018-0.776-0.054c-0.252-0.018-0.522-0.054-0.775-0.108c-0.271-0.054-0.486-0.126-0.685-0.197v0.576
			c0.613,0.83,1.226,1.443,1.822,1.84c0.613,0.396,1.19,0.596,1.731,0.596c0.433,0,0.901-0.108,1.406-0.289
			c0.523-0.198,1.028-0.505,1.515-0.956c0.433-0.396,0.794-0.848,1.064-1.37c0.271-0.541,0.469-1.101,0.577-1.731v-0.019h0.487
			V54.902z M94.042,59.32c-0.036,0.054-0.054,0.09-0.072,0.145c-0.036,0.035-0.054,0.09-0.072,0.126
			c-0.018,0.036-0.036,0.072-0.072,0.126c-0.036,0.036-0.054,0.09-0.072,0.126c-0.036,0.055-0.09,0.145-0.126,0.235
			c-0.018,0.036-0.036,0.054-0.054,0.09c0,0.036-0.018,0.054-0.036,0.09V60.24l-1.515-0.902c-0.145,0.271-0.289,0.56-0.451,0.83
			c-0.144,0.271-0.289,0.541-0.451,0.812c0.325,0.198,0.631,0.397,0.938,0.595c0.306,0.181,0.613,0.379,0.938,0.56
			c0.072-0.091,0.145-0.235,0.234-0.397c0.09-0.18,0.162-0.359,0.253-0.541v0.019l1.515,0.92c0.144-0.271,0.307-0.56,0.451-0.848
			s0.289-0.577,0.451-0.848L94.042,59.32z M96.549,54.234c-0.072-0.396-0.18-0.848-0.324-1.353
			c-0.145-0.469-0.307-0.884-0.487-1.263s-0.379-0.703-0.577-0.955c-0.018,0.018-0.018,0.035-0.036,0.054
			c0,0.036-0.018,0.054-0.018,0.091l-0.054,0.107c-0.198,0.361-0.378,0.739-0.541,1.082c-0.162,0.361-0.343,0.74-0.541,1.118
			c0.126,0.019,0.253,0.072,0.379,0.181c0.145,0.108,0.271,0.234,0.379,0.396s0.216,0.325,0.307,0.506
			c0.072,0.18,0.126,0.359,0.144,0.521c0,0.037-0.072,0.073-0.18,0.091c-0.108,0.019-0.253,0.054-0.433,0.054
			c-0.181,0.019-0.397,0.037-0.649,0.037c-0.234,0-0.487,0.018-0.758,0.018s-0.541,0-0.812,0s-0.522-0.018-0.775-0.018h-0.234
			c-0.054,0-0.108,0-0.181,0c-0.054,0-0.108,0-0.162,0h-0.505v2.812h5.591c0.396,0,0.595-0.829,0.595-2.525
			C96.675,54.956,96.621,54.631,96.549,54.234L96.549,54.234z M100.733,44.803c-0.126,0.108-0.234,0.234-0.36,0.36
			c-0.108,0.108-0.234,0.234-0.361,0.379v-0.018c-0.036,0.036-0.072,0.09-0.108,0.126c-0.036,0.036-0.09,0.072-0.126,0.126
			c-0.108,0.108-0.216,0.234-0.324,0.343c-0.09,0.108-0.216,0.217-0.325,0.325c-0.054,0.054-0.108,0.108-0.163,0.162
			c-0.054,0.054-0.108,0.108-0.162,0.163v10.929c0.289-0.325,0.56-0.649,0.83-0.992c0.018-0.036,0.054-0.072,0.072-0.09
			c0.018-0.036,0.036-0.055,0.072-0.09c0.163-0.199,0.325-0.396,0.487-0.577c0.162-0.198,0.325-0.397,0.469-0.596V44.803z
			 M110.293,48.59c-0.073,0.145-0.163,0.289-0.253,0.433c-0.072,0.162-0.162,0.307-0.252,0.469
			c-0.055,0.108-0.126,0.235-0.199,0.379c-0.054,0.126-0.126,0.252-0.198,0.379c0.234,0.126,0.451,0.271,0.667,0.415
			c0.235,0.145,0.451,0.271,0.667,0.414l0.542,0.289c0.144-0.271,0.306-0.541,0.432-0.812c0.09-0.145,0.163-0.271,0.252-0.433
			c0.072-0.144,0.145-0.289,0.216-0.415L110.293,48.59z M115.774,54.938c-0.107-0.396-0.252-0.829-0.433-1.298
			c-0.18-0.469-0.378-0.92-0.595-1.353c-0.144,0.18-0.271,0.324-0.415,0.486c-0.126,0.145-0.27,0.307-0.396,0.469
			c-0.145,0.163-0.288,0.325-0.433,0.487c-0.144,0.181-0.289,0.343-0.433,0.505c0.235,0.181,0.433,0.396,0.614,0.631
			c0.161,0.234,0.306,0.47,0.414,0.723c0.109,0.27,0.181,0.521,0.235,0.793c0.054,0.271,0.072,0.541,0.072,0.829
			c0,0.217-0.036,0.397-0.126,0.542v-0.019c-0.108,0.162-0.271,0.325-0.487,0.451c-0.199,0.126-0.433,0.233-0.685,0.343
			c-0.252,0.107-0.505,0.197-0.776,0.27c-0.27,0.072-0.541,0.127-0.794,0.181c-0.27,0.036-0.505,0.072-0.738,0.108
			c-0.217,0.018-0.415,0.018-0.559,0.018c-1.948,0-2.922-0.667-2.922-2.037c0-0.866,0.306-1.857,0.938-2.939v-0.181
			c-0.163,0.162-0.36,0.396-0.595,0.703c-0.234,0.307-0.487,0.686-0.757,1.136v-0.018c-0.27,0.487-0.487,0.974-0.631,1.461
			c-0.162,0.505-0.234,0.992-0.234,1.496c0,0.451,0.072,0.884,0.217,1.281c0.126,0.396,0.36,0.757,0.649,1.063
			c0.306,0.288,0.685,0.541,1.136,0.703c0.469,0.181,1.01,0.271,1.641,0.271c0.378,0,0.757-0.035,1.136-0.107
			c0.397-0.072,0.776-0.163,1.154-0.289c0.379-0.108,0.739-0.252,1.1-0.415c0.342-0.144,0.667-0.306,0.938-0.469
			c0.235-0.162,0.451-0.36,0.686-0.595c0.233-0.252,0.433-0.541,0.631-0.866c0.18-0.343,0.324-0.721,0.45-1.153
			c0.126-0.434,0.181-0.92,0.181-1.461c-0.019-0.217-0.036-0.451-0.055-0.722c-0.018-0.271-0.054-0.56-0.09-0.829L115.774,54.938z
			 M120.051,44.803c-0.126,0.108-0.235,0.234-0.361,0.36c-0.107,0.108-0.233,0.234-0.36,0.379v-0.018
			c-0.036,0.036-0.073,0.09-0.109,0.126s-0.09,0.072-0.126,0.126c-0.108,0.108-0.216,0.234-0.325,0.343
			c-0.09,0.108-0.216,0.217-0.324,0.325c-0.054,0.054-0.108,0.108-0.162,0.162c-0.055,0.054-0.108,0.108-0.162,0.163v10.929
			c0.289-0.325,0.559-0.649,0.83-0.992c0.018-0.036,0.054-0.072,0.071-0.09c0.019-0.036,0.036-0.055,0.072-0.09
			c0.162-0.199,0.325-0.396,0.487-0.577c0.162-0.198,0.324-0.397,0.469-0.596V44.803z"/>
		<path fill="#FFFFFF" d="M128.222,54.902h-0.631v-0.037c-0.199-0.612-0.47-1.154-0.776-1.587c-0.306-0.433-0.648-0.775-1.01-1.01
			c-0.199,0.415-0.396,0.83-0.613,1.227c-0.09,0.216-0.198,0.415-0.307,0.613c-0.09,0.217-0.198,0.433-0.306,0.649
			c0.613,0.432,1.1,0.812,1.442,1.118s0.523,0.595,0.523,0.848c0,0.324-0.09,0.667-0.252,0.991
			c-0.181,0.324-0.434,0.613-0.776,0.866c-0.342,0.252-0.775,0.469-1.28,0.613c-0.505,0.162-1.083,0.253-1.75,0.253
			c-0.18,0-0.379-0.02-0.631-0.02c-0.253,0-0.505-0.018-0.775-0.054c-0.252-0.018-0.523-0.054-0.776-0.108
			c-0.27-0.054-0.487-0.126-0.685-0.197v0.576c0.613,0.83,1.227,1.443,1.821,1.84c0.613,0.396,1.19,0.596,1.731,0.596
			c0.434,0,0.902-0.108,1.407-0.289c0.522-0.198,1.027-0.505,1.515-0.956c0.433-0.396,0.793-0.848,1.064-1.37
			c0.271-0.541,0.47-1.101,0.577-1.731v-0.019h0.487V54.902z M130.44,59.41c-0.09,0.145-0.163,0.289-0.253,0.451
			c-0.071,0.145-0.162,0.289-0.233,0.433c-0.073,0.108-0.126,0.234-0.199,0.379c-0.072,0.126-0.144,0.271-0.216,0.379
			c0.072,0.054,0.144,0.108,0.216,0.144c0.073,0.036,0.144,0.091,0.217,0.145c0.252,0.145,0.487,0.289,0.721,0.433
			c0.235,0.163,0.47,0.308,0.723,0.451c0.09-0.144,0.161-0.307,0.233-0.469c0.09-0.145,0.163-0.307,0.253-0.451
			c0.054-0.126,0.126-0.252,0.198-0.396c0.072-0.126,0.144-0.271,0.199-0.396L130.44,59.41z M133.813,54.234
			c-0.073-0.396-0.182-0.848-0.325-1.353c-0.144-0.469-0.306-0.884-0.487-1.263c-0.18-0.379-0.379-0.703-0.576-0.955
			c-0.019,0.018-0.019,0.035-0.036,0.054c0,0.036-0.019,0.054-0.019,0.091l-0.054,0.107c-0.199,0.361-0.378,0.739-0.541,1.082
			c-0.163,0.361-0.342,0.74-0.542,1.118c0.126,0.019,0.253,0.072,0.379,0.181c0.145,0.108,0.271,0.234,0.379,0.396
			c0.108,0.162,0.216,0.325,0.307,0.506c0.072,0.18,0.126,0.359,0.144,0.521c0,0.037-0.072,0.073-0.18,0.091
			c-0.109,0.019-0.252,0.054-0.434,0.054c-0.18,0.019-0.396,0.037-0.649,0.037c-0.234,0-0.487,0.018-0.757,0.018
			c-0.271,0-0.541,0-0.811,0c-0.271,0-0.523-0.018-0.776-0.018h-0.233c-0.055,0-0.109,0-0.181,0c-0.054,0-0.108,0-0.163,0h-0.505
			v2.812h5.592c0.396,0,0.595-0.829,0.595-2.525C133.939,54.956,133.885,54.631,133.813,54.234L133.813,54.234z"/>
		<path fill="#FFFFFF" d="M141.587,55.371c-0.09-0.434-0.216-0.812-0.379-1.172c-0.198-0.415-0.433-0.794-0.704-1.137
			c-0.27-0.343-0.541-0.613-0.83-0.794c-0.107,0.198-0.198,0.415-0.307,0.613c-0.09,0.217-0.198,0.415-0.288,0.613
			c-0.108,0.216-0.199,0.415-0.307,0.613c-0.108,0.217-0.216,0.433-0.306,0.649c0.595,0.432,1.082,0.812,1.424,1.118
			s0.523,0.595,0.541,0.848c0,0.324-0.09,0.667-0.27,0.991c-0.18,0.324-0.433,0.613-0.775,0.866
			c-0.343,0.252-0.758,0.469-1.263,0.613c-0.505,0.162-1.082,0.253-1.749,0.253c-0.181,0-0.397-0.02-0.649-0.02
			c-0.234,0-0.505-0.018-0.758-0.054c-0.27-0.018-0.522-0.054-0.793-0.108c-0.252-0.054-0.486-0.126-0.667-0.197v0.576
			c0.613,0.83,1.227,1.443,1.822,1.84c0.595,0.396,1.172,0.596,1.731,0.596c0.415,0,0.883-0.108,1.407-0.289
			c0.505-0.198,1.01-0.505,1.496-0.956c0.578-0.522,1.01-1.154,1.317-1.876c0.288-0.721,0.433-1.496,0.433-2.344
			C141.713,56.2,141.677,55.785,141.587,55.371L141.587,55.371z M146.962,54.902h-0.757c-0.126,0-0.235-0.055-0.306-0.127
			c-0.055-0.072-0.108-0.181-0.108-0.324V44.82c-0.054,0.036-0.109,0.091-0.145,0.145c-0.055,0.054-0.108,0.108-0.162,0.145
			c-0.108,0.108-0.216,0.216-0.325,0.342c-0.108,0.108-0.216,0.216-0.324,0.325c-0.163,0.18-0.324,0.343-0.486,0.505
			c-0.163,0.163-0.325,0.325-0.488,0.487v7.79c0,1.029,0.18,1.804,0.524,2.345c0.342,0.541,0.829,0.812,1.496,0.812h1.082V54.902z
			 M146.493,54.902v2.812h6.421c0.36,0,0.667-0.054,0.92-0.145c0.234-0.107,0.432-0.252,0.594-0.432
			c0.146-0.181,0.253-0.397,0.326-0.65c0.072-0.233,0.107-0.486,0.107-0.757c0-0.162-0.055-0.36-0.145-0.577
			c-0.09-0.234-0.216-0.486-0.359-0.739c-0.163-0.253-0.344-0.541-0.561-0.812c-0.216-0.289-0.432-0.577-0.667-0.848
			c-0.181-0.162-0.343-0.325-0.541-0.505c-0.181-0.181-0.36-0.379-0.54-0.56c-0.055-0.054-0.092-0.09-0.145-0.126
			c-0.037-0.054-0.091-0.091-0.127-0.145v0.019c-0.036-0.072-0.072-0.108-0.108-0.127c-0.035-0.035-0.054-0.054-0.091-0.09
			l-0.09-0.072c-0.198-0.198-0.396-0.396-0.612-0.595c-0.217-0.198-0.415-0.397-0.631-0.577c-0.218-0.198-0.415-0.379-0.632-0.541
			c-0.198-0.181-0.396-0.325-0.596-0.469v-0.072l5.104-2.074c0-0.018,0.036-0.108,0.09-0.252c0.073-0.126,0.146-0.289,0.216-0.487
			c0.091-0.198,0.182-0.415,0.271-0.649c0.107-0.216,0.197-0.433,0.289-0.631c0.09-0.199,0.161-0.379,0.216-0.523
			c0.071-0.144,0.108-0.234,0.126-0.271c-2.434,1.01-4.328,1.821-5.645,2.435c-1.335,0.613-2.074,1.028-2.236,1.244
			c-0.162,0.271-0.289,0.523-0.378,0.793c-0.109,0.271-0.145,0.523-0.145,0.739c0,0.505,0.163,0.956,0.506,1.389
			c0.324,0.415,0.775,0.83,1.316,1.227c0.018-0.072,0.054-0.181,0.09-0.307s0.072-0.234,0.108-0.343v-0.018
			c0.126,0.09,0.307,0.216,0.486,0.378c0.198,0.181,0.415,0.361,0.632,0.56c0.216,0.198,0.434,0.415,0.667,0.649
			c0.235,0.234,0.451,0.451,0.667,0.667c0.199,0.217,0.397,0.433,0.559,0.613c0.163,0.198,0.308,0.36,0.416,0.505v0.036
			c-0.037,0.072-0.198,0.144-0.451,0.181c-0.253,0.036-0.613,0.072-1.064,0.09c-0.451,0.036-0.974,0.036-1.604,0.036
			c-0.614,0.019-1.316,0.019-2.074,0.019H146.493z M164.854,48.59c-0.072,0.145-0.162,0.289-0.252,0.433
			c-0.072,0.162-0.162,0.307-0.252,0.469c-0.055,0.108-0.127,0.235-0.199,0.379c-0.054,0.126-0.127,0.252-0.197,0.379
			c0.233,0.126,0.449,0.271,0.666,0.415c0.234,0.145,0.451,0.271,0.668,0.414l0.541,0.307c0.145-0.288,0.307-0.559,0.451-0.829
			c0.162-0.289,0.306-0.56,0.469-0.848L164.854,48.59z M170.752,54.902h-0.451v-0.037c-0.09-0.414-0.235-0.829-0.415-1.28
			c-0.181-0.45-0.379-0.884-0.577-1.298c-0.145,0.162-0.271,0.324-0.415,0.486c-0.126,0.145-0.271,0.307-0.415,0.469
			c-0.127,0.163-0.27,0.343-0.414,0.506c-0.145,0.162-0.289,0.324-0.415,0.486c0.233,0.181,0.433,0.396,0.595,0.631
			c0.163,0.234,0.307,0.47,0.416,0.723c0.107,0.27,0.18,0.521,0.233,0.793c0.055,0.271,0.072,0.541,0.072,0.829
			c0,0.217-0.036,0.397-0.108,0.542v-0.019c-0.127,0.162-0.288,0.325-0.486,0.451c-0.217,0.126-0.433,0.233-0.686,0.343
			c-0.252,0.107-0.523,0.197-0.793,0.27c-0.271,0.072-0.541,0.127-0.794,0.181c-0.271,0.036-0.505,0.072-0.739,0.108
			c-0.217,0.018-0.416,0.018-0.56,0.018c-1.948,0-2.922-0.667-2.922-2.037c0-0.866,0.307-1.857,0.938-2.939v-0.181
			c-0.162,0.162-0.361,0.396-0.596,0.703s-0.486,0.686-0.758,1.136v-0.018c-0.27,0.487-0.486,0.974-0.631,1.461
			c-0.162,0.505-0.234,0.992-0.234,1.496c0,0.451,0.072,0.884,0.217,1.281c0.126,0.396,0.359,0.757,0.648,1.063
			c0.308,0.288,0.686,0.541,1.137,0.703c0.469,0.181,1.01,0.271,1.641,0.271c0.379,0,0.758-0.035,1.137-0.107
			c0.396-0.072,0.775-0.163,1.154-0.289c0.379-0.108,0.74-0.252,1.082-0.396c0.343-0.162,0.668-0.307,0.938-0.469
			c0.18-0.127,0.361-0.288,0.559-0.487c0.199-0.18,0.379-0.415,0.561-0.649c0.162-0.252,0.324-0.541,0.451-0.865
			c0.143-0.307,0.233-0.667,0.287-1.046v-0.019h0.344V54.902z M175.351,54.09c0.163-0.09,0.325-0.144,0.505-0.144
			c0.145,0,0.289,0.036,0.434,0.09c0.145,0.072,0.271,0.163,0.379,0.271c0.107,0.108,0.217,0.234,0.289,0.396
			c0.09,0.145,0.144,0.307,0.18,0.486c-0.054,0.02-0.09,0.02-0.109,0.02c-0.035,0-0.07,0-0.09,0c-0.144,0-0.324-0.02-0.504-0.055
			c-0.199-0.036-0.379-0.091-0.578-0.145c-0.18-0.072-0.359-0.145-0.541-0.216c-0.161-0.073-0.307-0.145-0.414-0.217
			C175.027,54.361,175.188,54.199,175.351,54.09L175.351,54.09z M179.95,54.775h-1.461v0.019c-0.144-0.433-0.307-0.866-0.487-1.263
			c-0.18-0.396-0.396-0.739-0.596-1.046c-0.216-0.307-0.449-0.541-0.685-0.704c-0.235-0.18-0.487-0.27-0.722-0.27
			c-0.342,0-0.686,0.198-1.045,0.595c-0.361,0.379-0.704,0.974-1.029,1.749c-0.071,0.198-0.162,0.361-0.233,0.506
			c-0.091,0.126-0.163,0.233-0.216,0.288c-0.037,0.019-0.127,0.036-0.235,0.054c-0.126,0.018-0.307,0.036-0.522,0.036
			c-0.235,0.019-0.523,0.019-0.866,0.036c-0.361,0-0.776,0-1.28,0h-0.253v2.939h2.146c0.161,0,0.324,0,0.469-0.018
			c0.144,0,0.271-0.036,0.396-0.108c0.126-0.054,0.235-0.145,0.343-0.288c0.108-0.127,0.198-0.308,0.271-0.56v0.019
			c0.143,0.09,0.288,0.198,0.396,0.288c0.126,0.108,0.235,0.198,0.343,0.288c0.019,0.019,0.036,0.019,0.055,0.036
			c0.126,0.108,0.252,0.217,0.379,0.325c0.126,0.108,0.27,0.198,0.396,0.289c0.145,0.072,0.288,0.144,0.451,0.198
			c0.144,0.054,0.306,0.071,0.469,0.071c0.18,0,0.396-0.035,0.631-0.144c0.234-0.091,0.487-0.234,0.74-0.415v0.018h2.146V54.775z
			 M184.369,59.068l-0.27,0.522c-0.109,0.181-0.199,0.378-0.308,0.577c-0.108,0.18-0.216,0.379-0.324,0.577
			c0.144,0.09,0.288,0.181,0.433,0.271c0.162,0.09,0.307,0.18,0.433,0.271c0.181,0.108,0.343,0.217,0.505,0.324
			c0.162,0.091,0.324,0.198,0.505,0.288l0.108-0.216c0.127-0.253,0.253-0.505,0.396-0.739c0.127-0.234,0.252-0.486,0.397-0.722
			L184.369,59.068z M191.746,54.902h-0.326c-0.197-0.019-0.396-0.055-0.594-0.127c-0.217-0.09-0.416-0.162-0.596-0.271
			c-0.289-0.198-0.56-0.378-0.793-0.577c-0.253-0.198-0.488-0.396-0.704-0.595c-0.181-0.145-0.343-0.288-0.522-0.433
			c-0.182-0.145-0.361-0.307-0.56-0.451c-0.054-0.036-0.091-0.072-0.144-0.108c-0.055-0.036-0.109-0.072-0.163-0.108
			c-0.216-0.162-0.45-0.342-0.703-0.522c-0.271-0.181-0.522-0.343-0.794-0.505c-0.252-0.145-0.522-0.271-0.758-0.361
			c-0.252-0.107-0.486-0.162-0.685-0.162c-0.271,0-0.541,0.072-0.794,0.181c-0.27,0.126-0.521,0.343-0.774,0.649
			c-0.091,0.107-0.253,0.36-0.505,0.757c-0.253,0.397-0.561,0.938-0.938,1.624c0.541-0.234,1.028-0.397,1.425-0.506
			c0.414-0.108,0.775-0.162,1.118-0.162c0.288,0,0.577,0.054,0.865,0.145c0.308,0.107,0.613,0.234,0.92,0.396
			c0.308,0.162,0.595,0.361,0.901,0.577c0.307,0.198,0.596,0.433,0.885,0.667v0.072c-0.217,0.018-0.416,0.018-0.632,0.018
			s-0.415,0-0.631,0c-0.848,0-1.714-0.018-2.579-0.054s-1.713-0.072-2.543-0.108c-0.145-0.018-0.252-0.018-0.379-0.018
			c-0.126-0.018-0.234-0.018-0.361-0.018H179.5v2.812h12.246V54.902z M193.766,46.426c-0.035,0.09-0.09,0.162-0.143,0.271
			c-0.055,0.09-0.091,0.18-0.145,0.252c-0.091,0.198-0.199,0.378-0.289,0.559c-0.108,0.198-0.216,0.379-0.324,0.577
			c0.09,0.054,0.18,0.108,0.27,0.162c0.092,0.054,0.162,0.108,0.253,0.162c0.217,0.145,0.45,0.289,0.667,0.415
			c0.217,0.145,0.451,0.271,0.686,0.415c0.127-0.217,0.234-0.433,0.361-0.649c0.107-0.234,0.216-0.451,0.342-0.667
			c0.019-0.055,0.055-0.108,0.092-0.181c0.053-0.072,0.07-0.145,0.107-0.198L193.766,46.426z M197.355,54.234
			c-0.072-0.396-0.18-0.848-0.324-1.353c-0.145-0.469-0.307-0.884-0.486-1.263c-0.182-0.379-0.379-0.703-0.578-0.955
			c-0.019,0.018-0.019,0.035-0.036,0.054c0,0.036-0.018,0.054-0.018,0.091l-0.055,0.107c-0.198,0.361-0.379,0.739-0.541,1.082
			c-0.161,0.361-0.343,0.74-0.54,1.118c0.126,0.019,0.252,0.072,0.379,0.181c0.144,0.108,0.27,0.234,0.379,0.396
			c0.107,0.162,0.215,0.325,0.306,0.506c0.072,0.18,0.126,0.359,0.144,0.521c0,0.037-0.071,0.073-0.18,0.091
			c-0.109,0.019-0.252,0.054-0.433,0.054c-0.181,0.019-0.397,0.037-0.649,0.037c-0.234,0-0.486,0.018-0.758,0.018
			c-0.27,0-0.541,0-0.811,0c-0.271,0-0.524-0.018-0.777-0.018h-0.233c-0.055,0-0.108,0-0.181,0c-0.055,0-0.107,0-0.162,0h-0.504
			v2.812h5.59c0.396,0,0.596-0.829,0.596-2.525C197.482,54.956,197.428,54.631,197.355,54.234L197.355,54.234z M201.54,44.803
			c-0.126,0.108-0.233,0.234-0.36,0.36c-0.108,0.108-0.234,0.234-0.361,0.379v-0.018c-0.036,0.036-0.072,0.09-0.107,0.126
			c-0.036,0.036-0.091,0.072-0.126,0.126c-0.108,0.108-0.218,0.234-0.325,0.343c-0.09,0.108-0.217,0.217-0.324,0.325
			c-0.055,0.054-0.109,0.108-0.163,0.162s-0.107,0.108-0.162,0.163v10.929c0.288-0.325,0.56-0.649,0.829-0.992
			c0.02-0.036,0.055-0.072,0.072-0.09c0.018-0.036,0.037-0.055,0.073-0.09c0.161-0.199,0.323-0.396,0.486-0.577
			c0.162-0.198,0.325-0.397,0.469-0.596V44.803z"/>
	</g>
	<g>
		<path fill="#FFFFFF" d="M0.081,71.633H2.44v11.516H0.081V71.633z"/>
		<path fill="#FFFFFF" d="M4.367,83.148v-5.57c0-1.252-0.021-2.181-0.061-2.784H6.33l0.076,1.589h0.061
			c0.182-0.575,0.465-1.016,0.848-1.32c0.383-0.305,0.79-0.457,1.222-0.457c0.238,0,0.406,0.018,0.502,0.052v2.477
			c-0.197-0.057-0.411-0.085-0.639-0.085c-0.437,0-0.824,0.139-1.165,0.414c-0.34,0.276-0.51,0.765-0.51,1.465v4.221H4.367z"/>
		<path fill="#FFFFFF" d="M16.406,78.211v2.904c0,0.843,0.041,1.521,0.122,2.033h-2.116l-0.137-0.838h-0.061
			c-0.513,0.684-1.238,1.025-2.177,1.025c-0.73,0-1.324-0.249-1.781-0.747c-0.456-0.499-0.685-1.104-0.685-1.815
			c0-1.037,0.387-1.831,1.16-2.384c0.774-0.552,1.884-0.828,3.33-0.828v-0.103c0-0.695-0.467-1.043-1.4-1.043
			c-0.761,0-1.467,0.211-2.116,0.633l-0.441-1.674c0.827-0.514,1.816-0.77,2.968-0.77c1.096,0,1.926,0.311,2.488,0.932
			C16.125,76.157,16.406,77.049,16.406,78.211z M14.139,80.056v-0.854c-1.492,0-2.237,0.434-2.237,1.299
			c0,0.313,0.083,0.557,0.251,0.73c0.167,0.174,0.398,0.261,0.692,0.261c0.319,0,0.615-0.126,0.887-0.376
			C14.002,80.864,14.139,80.512,14.139,80.056z"/>
		<path fill="#FFFFFF" d="M18.152,83.148v-5.673c0-0.825-0.021-1.72-0.062-2.682h2.04l0.106,1.179h0.061
			c0.553-0.911,1.34-1.367,2.359-1.367c0.837,0,1.503,0.318,1.998,0.953c0.494,0.635,0.742,1.53,0.742,2.687v4.903h-2.359v-4.562
			c0-1.241-0.411-1.861-1.233-1.861c-0.334,0-0.634,0.143-0.897,0.427c-0.264,0.285-0.396,0.688-0.396,1.213v4.784H18.152z"/>
		<path fill="#FFFFFF" d="M29.615,72.316c0,0.398-0.122,0.729-0.366,0.99c-0.243,0.263-0.562,0.394-0.959,0.394
			c-0.396,0-0.715-0.131-0.959-0.394c-0.243-0.262-0.365-0.592-0.365-0.99s0.123-0.729,0.369-0.991
			c0.247-0.262,0.565-0.393,0.955-0.393c0.392,0,0.709,0.131,0.955,0.393C29.491,71.588,29.615,71.918,29.615,72.316z
			 M29.478,83.148h-2.359v-8.354h2.359V83.148z"/>
		<path fill="#FFFFFF" d="M37.607,78.211v2.904c0,0.843,0.04,1.521,0.122,2.033h-2.116l-0.137-0.838h-0.061
			c-0.513,0.684-1.239,1.025-2.177,1.025c-0.73,0-1.325-0.249-1.781-0.747c-0.457-0.499-0.685-1.104-0.685-1.815
			c0-1.037,0.387-1.831,1.161-2.384c0.774-0.552,1.884-0.828,3.33-0.828v-0.103c0-0.695-0.467-1.043-1.4-1.043
			c-0.761,0-1.466,0.211-2.116,0.633l-0.441-1.674c0.827-0.514,1.816-0.77,2.968-0.77c1.096,0,1.926,0.311,2.489,0.932
			C37.326,76.157,37.607,77.049,37.607,78.211z M35.339,80.056v-0.854c-1.492,0-2.237,0.434-2.237,1.299
			c0,0.313,0.083,0.557,0.251,0.73s0.398,0.261,0.693,0.261c0.319,0,0.615-0.126,0.887-0.376
			C35.203,80.864,35.339,80.512,35.339,80.056z"/>
		<path fill="#FFFFFF" d="M39.353,83.148v-5.673c0-0.825-0.021-1.72-0.061-2.682h2.04l0.107,1.179h0.061
			c0.553-0.911,1.34-1.367,2.359-1.367c0.837,0,1.503,0.318,1.998,0.953s0.742,1.53,0.742,2.687v4.903h-2.359v-4.562
			c0-1.241-0.411-1.861-1.233-1.861c-0.335,0-0.634,0.143-0.897,0.427c-0.265,0.285-0.396,0.688-0.396,1.213v4.784H39.353z"/>
		<path fill="#FFFFFF" d="M60.799,83.148c-0.163-4.567-0.244-7.666-0.244-9.295H60.51c-0.249,1.225-1.08,4.26-2.496,9.106h-1.842
			c-0.848-3.343-1.354-5.393-1.522-6.15c-0.167-0.757-0.36-1.743-0.578-2.956h-0.03c-0.066,2.301-0.122,3.959-0.167,4.972
			l-0.198,4.323h-2.191l0.654-11.516h3.197c0.786,2.938,1.26,4.757,1.419,5.454c0.16,0.698,0.321,1.528,0.483,2.49h0.061
			c0.376-1.782,0.695-3.118,0.959-4.007l1.173-3.938h3.135l0.548,11.516H60.799z"/>
		<path fill="#FFFFFF" d="M71.178,78.211v2.904c0,0.843,0.041,1.521,0.122,2.033h-2.116l-0.137-0.838h-0.061
			c-0.513,0.684-1.238,1.025-2.177,1.025c-0.73,0-1.324-0.249-1.781-0.747c-0.457-0.499-0.685-1.104-0.685-1.815
			c0-1.037,0.387-1.831,1.161-2.384c0.774-0.552,1.883-0.828,3.33-0.828v-0.103c0-0.695-0.467-1.043-1.4-1.043
			c-0.761,0-1.467,0.211-2.116,0.633l-0.441-1.674c0.827-0.514,1.816-0.77,2.968-0.77c1.096,0,1.926,0.311,2.489,0.932
			C70.896,76.157,71.178,77.049,71.178,78.211z M68.91,80.056v-0.854c-1.492,0-2.237,0.434-2.237,1.299
			c0,0.313,0.083,0.557,0.251,0.73c0.167,0.174,0.398,0.261,0.692,0.261c0.32,0,0.615-0.126,0.887-0.376
			C68.774,80.864,68.91,80.512,68.91,80.056z"/>
		<path fill="#FFFFFF" d="M78.376,80.995l0.289,1.931c-0.574,0.273-1.299,0.41-2.177,0.41c-1.228,0-2.207-0.389-2.938-1.166
			c-0.731-0.777-1.096-1.818-1.096-3.122s0.393-2.371,1.18-3.199c0.786-0.829,1.849-1.243,3.188-1.243
			c0.685,0,1.299,0.114,1.842,0.342l-0.381,1.947c-0.386-0.182-0.837-0.273-1.354-0.273c-0.614,0-1.11,0.217-1.488,0.649
			c-0.378,0.434-0.567,0.991-0.567,1.675c0,0.712,0.196,1.277,0.59,1.695c0.393,0.419,0.896,0.628,1.511,0.628
			C77.478,81.269,77.944,81.178,78.376,80.995z"/>
		<path fill="#FFFFFF" d="M82.428,72.316c0,0.398-0.122,0.729-0.366,0.99c-0.244,0.263-0.563,0.394-0.959,0.394
			s-0.715-0.131-0.959-0.394c-0.243-0.262-0.365-0.592-0.365-0.99s0.123-0.729,0.369-0.991c0.246-0.262,0.564-0.393,0.955-0.393
			c0.391,0,0.708,0.131,0.955,0.393C82.304,71.588,82.428,71.918,82.428,72.316z M82.29,83.148h-2.359v-8.354h2.359V83.148z"/>
		<path fill="#FFFFFF" d="M84.081,83.148v-5.673c0-0.825-0.021-1.72-0.061-2.682h2.04l0.106,1.179h0.061
			c0.553-0.911,1.34-1.367,2.359-1.367c0.837,0,1.503,0.318,1.998,0.953c0.494,0.635,0.742,1.53,0.742,2.687v4.903h-2.359v-4.562
			c0-1.241-0.411-1.861-1.233-1.861c-0.334,0-0.634,0.143-0.897,0.427c-0.265,0.285-0.396,0.688-0.396,1.213v4.784H84.081z"/>
		<path fill="#FFFFFF" d="M93.313,73.222l2.298-0.7v2.272h1.689v1.947h-1.689v2.938c0,0.553,0.072,0.941,0.217,1.166
			c0.144,0.225,0.381,0.338,0.711,0.338c0.305,0,0.543-0.028,0.715-0.086l0.015,1.999c-0.37,0.159-0.883,0.239-1.537,0.239
			c-0.71,0-1.291-0.238-1.743-0.713c-0.451-0.476-0.677-1.314-0.677-2.516v-3.366h-1.005v-1.947h1.005V73.222z"/>
		<path fill="#FFFFFF" d="M106.141,78.877c0,1.367-0.383,2.451-1.149,3.255c-0.767,0.803-1.728,1.204-2.885,1.204
			c-1.167,0-2.123-0.395-2.869-1.184c-0.746-0.788-1.118-1.829-1.118-3.122c0-1.326,0.375-2.396,1.126-3.208
			c0.751-0.811,1.745-1.217,2.983-1.217c1.156,0,2.098,0.398,2.823,1.196S106.141,77.624,106.141,78.877z M100.54,78.979
			c0,0.74,0.144,1.339,0.43,1.794c0.287,0.455,0.671,0.684,1.153,0.684c0.472,0,0.851-0.226,1.138-0.675
			c0.286-0.45,0.43-1.057,0.43-1.819c0-0.729-0.137-1.324-0.411-1.786c-0.274-0.461-0.655-0.691-1.142-0.691
			c-0.502,0-0.894,0.231-1.176,0.696C100.681,77.646,100.54,78.245,100.54,78.979z"/>
		<path fill="#FFFFFF" d="M106.997,82.738l0.426-1.88c0.274,0.177,0.61,0.326,1.009,0.448c0.398,0.123,0.752,0.185,1.062,0.185
			c0.68,0,1.02-0.228,1.02-0.684c0-0.228-0.083-0.404-0.247-0.53c-0.165-0.125-0.458-0.262-0.879-0.41
			c-1.462-0.506-2.192-1.338-2.192-2.494c0-0.803,0.285-1.465,0.856-1.985c0.571-0.521,1.32-0.782,2.249-0.782
			c0.812,0,1.532,0.166,2.161,0.496l-0.411,1.811c-0.588-0.318-1.146-0.479-1.674-0.479c-0.609,0-0.914,0.223-0.914,0.666
			c0,0.2,0.092,0.367,0.278,0.504s0.509,0.288,0.97,0.453c0.71,0.251,1.233,0.582,1.568,0.995s0.502,0.936,0.502,1.567
			c0,0.826-0.29,1.485-0.868,1.979c-0.578,0.492-1.385,0.738-2.42,0.738C108.539,83.336,107.707,83.137,106.997,82.738z"/>
		<path fill="#FFFFFF" d="M114.148,83.148V70.983h2.359v4.835h0.03c0.229-0.353,0.537-0.643,0.925-0.871
			c0.388-0.228,0.801-0.342,1.237-0.342c0.827,0,1.482,0.322,1.967,0.965c0.484,0.645,0.727,1.559,0.727,2.742v4.836h-2.359v-4.527
			c0-1.254-0.416-1.88-1.249-1.88c-0.345,0-0.644,0.132-0.897,0.397c-0.254,0.265-0.381,0.628-0.381,1.089v4.921H114.148z"/>
		<path fill="#FFFFFF" d="M126.493,71.633h2.359v6.526c0,1.003,0.168,1.769,0.503,2.298c0.334,0.529,0.816,0.795,1.446,0.795
			c1.33,0,1.994-1.031,1.994-3.093v-6.526h2.359v6.39c0,1.737-0.378,3.057-1.134,3.96c-0.756,0.902-1.854,1.354-3.295,1.354
			c-2.821,0-4.232-1.782-4.232-5.348V71.633z"/>
		<path fill="#FFFFFF" d="M136.441,82.738l0.426-1.88c0.274,0.177,0.61,0.326,1.009,0.448c0.398,0.123,0.752,0.185,1.062,0.185
			c0.68,0,1.02-0.228,1.02-0.684c0-0.228-0.083-0.404-0.248-0.53c-0.165-0.125-0.458-0.262-0.878-0.41
			c-1.462-0.506-2.192-1.338-2.192-2.494c0-0.803,0.285-1.465,0.856-1.985c0.571-0.521,1.32-0.782,2.249-0.782
			c0.812,0,1.533,0.166,2.162,0.496l-0.411,1.811c-0.588-0.318-1.146-0.479-1.674-0.479c-0.609,0-0.914,0.223-0.914,0.666
			c0,0.2,0.093,0.367,0.278,0.504s0.509,0.288,0.97,0.453c0.71,0.251,1.233,0.582,1.568,0.995s0.502,0.936,0.502,1.567
			c0,0.826-0.289,1.485-0.867,1.979c-0.578,0.492-1.385,0.738-2.42,0.738C137.983,83.336,137.151,83.137,136.441,82.738z"/>
		<path fill="#FFFFFF" d="M150.303,79.816h-4.947c0.041,0.496,0.263,0.881,0.666,1.157s0.907,0.415,1.511,0.415
			c0.771,0,1.481-0.12,2.131-0.359l0.305,1.76c-0.772,0.364-1.694,0.547-2.771,0.547c-1.273,0-2.271-0.381-2.995-1.145
			c-0.723-0.764-1.084-1.806-1.084-3.127c0-1.213,0.348-2.259,1.043-3.139c0.694-0.88,1.631-1.32,2.808-1.32
			c1.086,0,1.928,0.393,2.527,1.179c0.598,0.786,0.897,1.794,0.897,3.024C150.394,79.213,150.363,79.549,150.303,79.816z
			 M145.341,78.006h2.86c0-0.394-0.102-0.768-0.308-1.124c-0.206-0.355-0.554-0.533-1.046-0.533c-0.406,0-0.742,0.152-1.008,0.457
			S145.406,77.51,145.341,78.006z"/>
		<path fill="#FFFFFF" d="M151.738,83.148v-5.57c0-1.252-0.021-2.181-0.062-2.784h2.024l0.076,1.589h0.061
			c0.184-0.575,0.466-1.016,0.849-1.32c0.384-0.305,0.79-0.457,1.222-0.457c0.238,0,0.406,0.018,0.502,0.052v2.477
			c-0.197-0.057-0.41-0.085-0.639-0.085c-0.437,0-0.824,0.139-1.164,0.414c-0.34,0.276-0.51,0.765-0.51,1.465v4.221H151.738z"/>
		<path fill="#FFFFFF" d="M169.789,76.536v6.065c-1.243,0.444-2.436,0.666-3.576,0.666c-1.929,0-3.377-0.534-4.346-1.602
			c-0.97-1.068-1.454-2.447-1.454-4.139c0-1.828,0.555-3.287,1.663-4.378s2.568-1.636,4.379-1.636c1.238,0,2.233,0.193,2.984,0.58
			l-0.502,2.085c-0.695-0.342-1.538-0.513-2.527-0.513c-1.07,0-1.924,0.329-2.561,0.986c-0.637,0.658-0.955,1.565-0.955,2.721
			c0,1.145,0.311,2.061,0.932,2.746c0.621,0.688,1.442,1.03,2.463,1.03c0.578,0,0.984-0.058,1.217-0.171v-2.393h-1.658v-2.05
			H169.789z"/>
		<path fill="#FFFFFF" d="M171.555,83.148v-5.57c0-1.252-0.02-2.181-0.061-2.784h2.024l0.075,1.589h0.062
			c0.183-0.575,0.466-1.016,0.849-1.32s0.79-0.457,1.222-0.457c0.238,0,0.405,0.018,0.502,0.052v2.477
			c-0.198-0.057-0.411-0.085-0.64-0.085c-0.436,0-0.824,0.139-1.164,0.414c-0.34,0.276-0.51,0.765-0.51,1.465v4.221H171.555z"/>
		<path fill="#FFFFFF" d="M184.953,78.877c0,1.367-0.383,2.451-1.148,3.255c-0.767,0.803-1.729,1.204-2.885,1.204
			c-1.166,0-2.123-0.395-2.869-1.184c-0.745-0.788-1.118-1.829-1.118-3.122c0-1.326,0.376-2.396,1.126-3.208
			c0.751-0.811,1.746-1.217,2.983-1.217c1.157,0,2.099,0.398,2.823,1.196C184.592,76.6,184.953,77.624,184.953,78.877z
			 M179.353,78.979c0,0.74,0.144,1.339,0.431,1.794c0.286,0.455,0.67,0.684,1.152,0.684c0.473,0,0.852-0.226,1.138-0.675
			c0.286-0.45,0.431-1.057,0.431-1.819c0-0.729-0.137-1.324-0.411-1.786c-0.274-0.461-0.655-0.691-1.142-0.691
			c-0.502,0-0.895,0.231-1.176,0.696C179.494,77.646,179.353,78.245,179.353,78.979z"/>
		<path fill="#FFFFFF" d="M193.476,74.794v5.655c0,0.894,0.021,1.793,0.062,2.699h-2.04l-0.106-1.213h-0.061
			c-0.528,0.934-1.324,1.4-2.391,1.4c-0.852,0-1.514-0.312-1.986-0.936c-0.471-0.623-0.707-1.524-0.707-2.703v-4.903h2.359v4.459
			c0,1.31,0.405,1.964,1.217,1.964c0.34,0,0.641-0.139,0.902-0.418s0.393-0.635,0.393-1.067v-4.938H193.476z"/>
		<path fill="#FFFFFF" d="M195.264,86.531v-8.919c0-0.854-0.02-1.794-0.061-2.818h2.055l0.107,1.195
			c0.613-0.923,1.486-1.384,2.617-1.384c0.878,0,1.628,0.392,2.249,1.175c0.622,0.783,0.933,1.804,0.933,3.062
			c0,1.378-0.34,2.472-1.02,3.28c-0.681,0.809-1.508,1.213-2.481,1.213c-0.431,0-0.829-0.087-1.19-0.261
			c-0.363-0.174-0.637-0.411-0.818-0.713h-0.031v4.169H195.264z M197.623,78.484v1.024c0,0.358,0.055,0.662,0.164,0.91
			c0.109,0.247,0.283,0.46,0.521,0.636c0.238,0.177,0.502,0.266,0.791,0.266c0.514,0,0.92-0.211,1.222-0.633
			c0.302-0.421,0.452-0.99,0.452-1.708c0-0.7-0.145-1.263-0.437-1.688c-0.292-0.424-0.688-0.636-1.19-0.636
			c-0.412,0-0.769,0.174-1.07,0.521C197.774,77.524,197.623,77.96,197.623,78.484z"/>
	</g>
	<g>
		<radialGradient id="SVGID_1_" cx="282.0059" cy="18.5781" r="107.4216" gradientUnits="userSpaceOnUse">
			<stop  offset="0" style="stop-color:#006595"/>
			<stop  offset="0.7301" style="stop-color:#03A5DE"/>
			<stop  offset="1" style="stop-color:#006595"/>
		</radialGradient>
		<path fill="url(#SVGID_1_)" d="M242.652,99c0,0-3.554-5.285-3.385-5.765c0.168-0.481,13.232-4.765,27.623-3.008
			c7.393,0.902,10.979,2.263,10.979,2.263s-16.717,0.736-27.729,3.834C246.506,97.347,242.652,99,242.652,99z"/>
		<path fill="#FFFFFF" d="M294,79.347c0,2.945-2.387,5.332-5.332,5.332h-65.172c-2.945,0-5.332-2.387-5.332-5.332V14.175
			c0-2.945,2.387-5.332,5.332-5.332h65.172c2.945,0,5.332,2.387,5.332,5.332V79.347z"/>
		<g>
			<radialGradient id="SVGID_2_" cx="310.3916" cy="-11.499" r="144.9841" gradientUnits="userSpaceOnUse">
				<stop  offset="0" style="stop-color:#006595"/>
				<stop  offset="0.7301" style="stop-color:#03A5DE"/>
				<stop  offset="1" style="stop-color:#006595"/>
			</radialGradient>
			<path fill="url(#SVGID_2_)" d="M244.415,8.843h-5.757c-2.785,2.284-15.501,12.734-18.289,15.34c0,0-0.975,0.894-2.205,2.095
				v4.543c0.18-0.171,0.362-0.344,0.555-0.517C218.719,30.305,233.705,17.788,244.415,8.843z"/>
			<radialGradient id="SVGID_3_" cx="310.3936" cy="-11.4976" r="144.9854" gradientUnits="userSpaceOnUse">
				<stop  offset="0" style="stop-color:#006595"/>
				<stop  offset="0.7301" style="stop-color:#03A5DE"/>
				<stop  offset="1" style="stop-color:#006595"/>
			</radialGradient>
			<path fill="url(#SVGID_3_)" d="M218.719,18.888c0,0,6.348-5.192,12.28-10.045h-7.503c-2.945,0-5.332,2.387-5.332,5.332v5.229
				C218.344,19.232,218.526,19.061,218.719,18.888z"/>
			<radialGradient id="SVGID_4_" cx="310.3916" cy="-11.4971" r="144.9821" gradientUnits="userSpaceOnUse">
				<stop  offset="0" style="stop-color:#006595"/>
				<stop  offset="0.7301" style="stop-color:#03A5DE"/>
				<stop  offset="1" style="stop-color:#006595"/>
			</radialGradient>
			<path fill="url(#SVGID_4_)" d="M286.213,78.162c-1.861,2.823-4.25,4.979-6.361,6.517h8.816c2.945,0,5.332-2.387,5.332-5.332
				V61.004C292.68,66.898,289.535,73.121,286.213,78.162z"/>
			<radialGradient id="SVGID_5_" cx="310.3916" cy="-11.4985" r="144.9842" gradientUnits="userSpaceOnUse">
				<stop  offset="0" style="stop-color:#006595"/>
				<stop  offset="0.7301" style="stop-color:#03A5DE"/>
				<stop  offset="1" style="stop-color:#006595"/>
			</radialGradient>
			<path fill="url(#SVGID_5_)" d="M257.621,75.496c2.625-2.814,4.783-5.731,6.315-8.533c0.896-1.788,2.224-4.752,3.136-7.365
				c2.963-8.492,9.354-11.227,10.876-11.939c1.784-0.835,5.174-2.189,4.778-0.016c-0.395,2.172-1.65,6.237-3.625,8.903
				c-1.976,2.666-4.759,3.124-6.93,6.73c-0.447,0.743-1.205,2.681-1.552,3.466c-1.415,3.955-3.756,8.408-5.74,11.42
				c-1.862,2.823-4.252,4.979-6.362,6.517h16.797c0.59-2.891,1.736-7.141,3.641-9.183c5.445-5.841,8.888-12.129,8.888-16.886
				s-0.003-9.075,0-13.923c0.003-5.864,5.513-19.065,6.157-20.588v-9.924c0-2.945-2.387-5.332-5.332-5.332h-36.784
				c-5.645,4.742-28.765,24.188-31.515,26.758c0,0-0.975,0.895-2.205,2.096v33.646c4.797-1.574,13.468-7.975,13.468-12.731
				s-0.003-9.075,0-13.923c0.003-6.228,6.221-20.737,6.221-20.737s2.336,0.994,1.663,4.681c-0.344,1.891-1.07,8.131-1.07,15.167
				c0,7.037,0.062,8.775,0,12.146c-0.134,7.202-3.321,14.416-7.617,20.933c-2.097,3.183-5.165,5.866-7.756,7.78
				c0.141,0.012,0.281,0.021,0.424,0.021h30.484C254.57,81.788,255.717,77.538,257.621,75.496z M248.867,29.503
				c1.934-5.702,6.646-5.604,6.646-5.604s-2.867,10.104-3.911,14.2c-3.403,13.338,3.503,11.575,3.503,11.575l1.268-3.41
				c1.177-0.217,7.896-1.667,6.673,6.061c-1.396,8.81-2.495,12.387-6.163,14.072c-1.703,0.783-7.355,1.721-11.143-2.111
				C238.885,57.35,246.933,35.206,248.867,29.503z"/>
		</g>
		<g>
			<path fill="#8ED7F8" d="M255.002,0c0,0,2.452,4.008-1.878,7.8c0,0-29.62,24.87-32.755,27.8c0,0-4.987,4.57-6.637,6.939
				c0,0-2.164-5.818,4.986-12.235L255.002,0z"/>
			<path fill="#8ED7F8" d="M241.084,0.593c0,0,2.452,4.008-1.878,7.8c0,0-15.702,12.86-18.837,15.791c0,0-4.987,4.57-6.637,6.939
				c0,0-2.164-5.818,4.986-12.234L241.084,0.593z"/>
		</g>
	</g>
</g>
</svg>
