<?xml version="1.0" encoding="utf-8"?>
<!-- Generator: Adobe Illustrator 15.0.0, SVG Export Plug-In . SVG Version: 6.00 Build 0)  -->
<!DOCTYPE svg PUBLIC "-//W3C//DTD SVG 1.1//EN" "http://www.w3.org/Graphics/SVG/1.1/DTD/svg11.dtd">
<svg version="1.1" id="Layer_1" xmlns="http://www.w3.org/2000/svg" xmlns:xlink="http://www.w3.org/1999/xlink" x="0px" y="0px"
	 width="304px" height="99px" viewBox="0 0 304 99" enable-background="new 0 0 304 99" xml:space="preserve">
<g>
	<g>
		<g>
			<path fill="#FFFFFF" d="M10.569,44.219c-0.074,0.149-0.149,0.298-0.224,0.429c-0.075,0.149-0.149,0.279-0.224,0.429
				c-0.074,0.13-0.149,0.279-0.224,0.429c-0.093,0.148-0.167,0.298-0.243,0.447c0.187,0.112,0.374,0.224,0.56,0.335
				c0.187,0.112,0.372,0.224,0.559,0.336c0.13,0.093,0.261,0.167,0.392,0.26c0.13,0.075,0.28,0.167,0.429,0.242
				c0.019-0.056,0.056-0.13,0.111-0.205c0.038-0.056,0.075-0.13,0.094-0.186c0.112-0.224,0.224-0.448,0.355-0.671
				c0.111-0.224,0.223-0.448,0.354-0.69L10.569,44.219z M12.508,47.108c-0.019,0.037-0.037,0.074-0.075,0.13
				c-0.019,0.056-0.037,0.093-0.056,0.13c-0.037,0.056-0.075,0.093-0.093,0.131c-0.019,0.037-0.037,0.074-0.075,0.112
				c0,0.019,0,0.019-0.019,0.037c0,0.019,0,0.019,0,0.037c-0.019,0.02-0.019,0.02-0.037,0.038c-0.02,0.074-0.057,0.149-0.094,0.205
				c-0.037,0.074-0.075,0.13-0.093,0.167l-1.659-0.987c-0.168,0.279-0.317,0.559-0.466,0.839c-0.167,0.298-0.317,0.578-0.485,0.876
				c0.336,0.186,0.653,0.392,0.97,0.595c0.316,0.206,0.652,0.393,0.969,0.598c0.019-0.02,0.019-0.038,0.038-0.057
				c0-0.038,0.019-0.056,0.037-0.111c0-0.019,0.019-0.037,0.037-0.074c0-0.019,0.019-0.057,0.056-0.075
				c0.037-0.093,0.094-0.187,0.168-0.299c0.056-0.112,0.112-0.224,0.168-0.298c0.018-0.075,0.038-0.112,0.056-0.131l1.659,1.025
				c0.111-0.205,0.205-0.41,0.316-0.596c0.112-0.205,0.224-0.41,0.317-0.597c0.056-0.074,0.093-0.167,0.149-0.279
				c0.056-0.093,0.112-0.186,0.149-0.28L12.508,47.108z M16.926,51.769c-0.093-0.485-0.205-0.801-0.391-0.951
				c-0.187,0.15-0.354,0.298-0.522,0.448c-0.167,0.147-0.335,0.298-0.484,0.446c-0.131,0.112-0.261,0.225-0.429,0.354
				c-0.149,0.13-0.28,0.262-0.428,0.392c0.223,0.187,0.41,0.392,0.54,0.597c0.13,0.187,0.205,0.409,0.205,0.634
				c0,0.075-0.037,0.13-0.13,0.168c-0.075,0.037-0.167,0.075-0.279,0.112c-0.112,0.018-0.261,0.036-0.41,0.055
				c-0.15,0.019-0.299,0.019-0.448,0.019c-0.205,0-0.391-0.019-0.541-0.037c-0.167-0.036-0.261-0.073-0.298-0.131v-0.036
				c0.094-0.242,0.131-0.485,0.168-0.746c0.018-0.242,0.037-0.504,0.037-0.764c0-0.225,0-0.448-0.019-0.671
				c0-0.225-0.018-0.447-0.018-0.672c-0.02-0.037-0.02-0.056-0.02-0.093c0-0.02,0-0.057,0-0.075l-1.641,1.641
				c0.057,0.112,0.113,0.225,0.15,0.372c0.037,0.15,0.056,0.281,0.056,0.43c0,0.13,0,0.261-0.038,0.354
				c-0.037,0.093-0.093,0.167-0.186,0.242c-0.094,0.056-0.224,0.093-0.373,0.13c-0.167,0.019-0.373,0.037-0.615,0.037
				c-0.149,0-0.28,0-0.41-0.019c-0.15-0.019-0.243-0.056-0.336-0.093v-0.038c-0.093-0.428-0.224-0.876-0.41-1.322
				c-0.186-0.448-0.391-0.933-0.652-1.417c-0.056,0.056-0.111,0.131-0.167,0.186c-0.056,0.057-0.112,0.132-0.187,0.206
				c-0.093,0.093-0.167,0.205-0.261,0.298c-0.093,0.112-0.167,0.224-0.261,0.317c-0.111,0.149-0.223,0.279-0.335,0.392
				c-0.111,0.13-0.205,0.242-0.317,0.372c-0.018,0.02-0.056,0.056-0.093,0.112c-0.037,0.037-0.056,0.094-0.093,0.112
				c0.242,0.205,0.448,0.428,0.615,0.651c0.187,0.242,0.317,0.504,0.429,0.766c0.112,0.261,0.205,0.538,0.261,0.82
				c0.037,0.278,0.075,0.558,0.075,0.838c0,0.242-0.038,0.447-0.13,0.579c-0.112,0.147-0.279,0.296-0.484,0.447
				c-0.224,0.129-0.448,0.24-0.708,0.354c-0.261,0.111-0.541,0.186-0.821,0.261c-0.298,0.074-0.578,0.149-0.838,0.186
				c-0.28,0.057-0.523,0.094-0.765,0.113c-0.223,0.036-0.428,0.036-0.578,0.036c-2.013,0-3.02-0.709-3.02-2.105
				c0-0.913,0.335-1.94,0.989-3.058V52.85c-0.187,0.168-0.411,0.41-0.635,0.728c-0.242,0.316-0.503,0.708-0.764,1.155
				c-0.298,0.484-0.504,0.988-0.671,1.51C0.075,56.765,0,57.269,0,57.771c0,0.485,0.075,0.932,0.224,1.343
				c0.149,0.41,0.373,0.782,0.69,1.081c0.298,0.316,0.689,0.56,1.174,0.745c0.484,0.187,1.044,0.279,1.697,0.279
				c0.373,0,0.764-0.036,1.156-0.11c0.41-0.075,0.802-0.187,1.193-0.3c0.391-0.129,0.764-0.26,1.137-0.429
				c0.354-0.148,0.671-0.315,0.969-0.484c0.56-0.391,1.006-0.856,1.324-1.38c0.335-0.521,0.503-1.062,0.541-1.64v-0.037
				c0.112,0.019,0.224,0.019,0.354,0.019c0.112,0,0.243,0,0.335,0c0.205,0,0.411-0.019,0.597-0.037
				c0.168-0.019,0.336-0.056,0.503-0.131c0.149-0.055,0.298-0.13,0.447-0.224c0.149-0.111,0.298-0.242,0.429-0.391
				c0.13,0.167,0.279,0.298,0.465,0.409s0.392,0.188,0.597,0.261c0.224,0.057,0.448,0.112,0.69,0.131s0.485,0.038,0.708,0.038
				c0.223,0,0.447,0,0.671-0.02c0.206-0.019,0.391-0.019,0.56-0.037l0.037-0.019c0.019,0,0.056,0,0.074,0c0.037,0,0.056,0,0.093,0
				c0.075-0.149,0.131-0.354,0.187-0.597c0.056-0.261,0.093-0.541,0.111-0.82c0.037-0.279,0.056-0.577,0.074-0.875
				c0-0.299,0-0.578,0-0.82C17.038,52.905,17,52.253,16.926,51.769L16.926,51.769z M22.502,53.838h-0.783
				c-0.13,0-0.242-0.057-0.317-0.131c-0.056-0.075-0.111-0.187-0.111-0.335v-9.955c-0.056,0.037-0.112,0.094-0.15,0.149
				c-0.055,0.056-0.112,0.112-0.167,0.149c-0.112,0.111-0.225,0.223-0.336,0.354c-0.112,0.112-0.224,0.224-0.336,0.335
				c-0.167,0.187-0.335,0.354-0.503,0.522c-0.167,0.168-0.335,0.336-0.503,0.504v8.053c0,1.063,0.187,1.864,0.541,2.423
				c0.354,0.56,0.858,0.839,1.547,0.839h1.119V53.838z M26.138,45.952c-0.037,0.038-0.057,0.093-0.094,0.168
				s-0.074,0.149-0.13,0.224c0,0.018,0,0.018,0,0.037c-0.019,0-0.019,0.019-0.019,0.037c-0.019,0.037-0.056,0.075-0.074,0.111
				c-0.02,0.037-0.038,0.075-0.057,0.131c-0.037,0.056-0.055,0.111-0.074,0.168c-0.038,0.056-0.056,0.093-0.075,0.13V46.94
				l-1.697-0.988c-0.167,0.298-0.335,0.597-0.503,0.932c-0.074,0.131-0.149,0.242-0.205,0.373c-0.074,0.13-0.148,0.261-0.205,0.391
				c0.131,0.075,0.261,0.168,0.392,0.243c0.13,0.093,0.26,0.186,0.41,0.261c0.168,0.13,0.354,0.242,0.541,0.354
				c0.167,0.112,0.354,0.242,0.56,0.354l0.074-0.187c0.019-0.037,0.056-0.075,0.074-0.093c0.019-0.037,0.038-0.056,0.038-0.093
				c0.037-0.056,0.075-0.112,0.093-0.168c0.038-0.056,0.056-0.112,0.093-0.168c0.037-0.075,0.074-0.13,0.112-0.205
				c0.037-0.056,0.055-0.112,0.093-0.168v0.019l1.66,1.063c0.075-0.15,0.167-0.299,0.242-0.448c0.075-0.148,0.149-0.298,0.223-0.428
				c0.075-0.149,0.149-0.299,0.224-0.448c0.074-0.149,0.149-0.298,0.242-0.447L26.138,45.952z M29.232,53.838h-0.876V53.8
				c-0.019-0.279-0.056-0.596-0.149-0.932c-0.075-0.335-0.167-0.672-0.261-1.006c-0.149-0.393-0.317-0.802-0.484-1.212
				c-0.187-0.411-0.392-0.821-0.597-1.193c-0.093,0.205-0.187,0.391-0.28,0.577c-0.093,0.187-0.187,0.392-0.298,0.578
				c-0.056,0.131-0.093,0.243-0.149,0.355c-0.057,0.093-0.112,0.204-0.149,0.298c-0.056,0.111-0.112,0.241-0.167,0.354
				c-0.075,0.131-0.131,0.261-0.187,0.373c0.112,0.019,0.242,0.094,0.373,0.204c0.131,0.113,0.261,0.242,0.373,0.392
				c0.131,0.168,0.224,0.337,0.317,0.504c0.075,0.187,0.131,0.354,0.168,0.504v0.036c-0.037,0.019-0.149,0.057-0.317,0.075
				c-0.168,0.037-0.373,0.057-0.634,0.057c-0.243,0.018-0.541,0.018-0.839,0.036c-0.317,0-0.634,0.019-0.951,0.019
				c-0.335,0-0.652,0.02-0.95,0.02c-0.317,0-0.597,0-0.839,0h-0.317v2.907h7.214V53.838z M31.302,45.077
				c-0.02,0.019-0.038,0.055-0.056,0.075c-0.019,0.018-0.019,0.055-0.038,0.074c-0.13,0.261-0.279,0.522-0.41,0.782
				c-0.13,0.262-0.279,0.504-0.429,0.764c0.112,0.075,0.224,0.149,0.336,0.225c0.13,0.074,0.242,0.149,0.335,0.205
				c0.224,0.149,0.429,0.261,0.634,0.392c0.205,0.112,0.41,0.242,0.634,0.373c0.038-0.055,0.075-0.13,0.112-0.205
				c0.037-0.055,0.075-0.13,0.111-0.205c0.112-0.205,0.224-0.429,0.355-0.653c0.111-0.223,0.242-0.447,0.354-0.671L31.302,45.077z
				 M35.963,53.838h-0.876V53.8c-0.019-0.279-0.056-0.596-0.149-0.932c-0.075-0.335-0.167-0.672-0.262-1.006
				c-0.148-0.393-0.316-0.802-0.484-1.212c-0.187-0.411-0.392-0.821-0.597-1.193c-0.093,0.205-0.187,0.391-0.28,0.577
				c-0.093,0.187-0.187,0.392-0.298,0.578c-0.056,0.131-0.094,0.243-0.149,0.355c-0.057,0.093-0.112,0.204-0.15,0.298
				c-0.055,0.111-0.111,0.241-0.167,0.354c-0.075,0.131-0.131,0.261-0.187,0.373c0.111,0.019,0.242,0.094,0.373,0.204
				c0.131,0.113,0.261,0.242,0.373,0.392c0.131,0.168,0.224,0.337,0.317,0.504c0.075,0.187,0.13,0.354,0.168,0.504v0.036
				c-0.038,0.019-0.149,0.057-0.317,0.075c-0.168,0.037-0.373,0.057-0.634,0.057c-0.243,0.018-0.541,0.018-0.839,0.036
				c-0.316,0-0.633,0.019-0.95,0.019c-0.335,0-0.652,0.02-0.95,0.02c-0.317,0-0.597,0-0.839,0h-0.317v2.907h7.215V53.838z
				 M39.15,58.405c-0.037,0.056-0.056,0.093-0.075,0.148c-0.037,0.036-0.055,0.075-0.075,0.131
				c-0.018,0.037-0.037,0.074-0.074,0.111c-0.038,0.057-0.056,0.094-0.074,0.131c-0.037,0.074-0.094,0.168-0.13,0.261
				c-0.019,0.038-0.038,0.057-0.056,0.094c0,0.018-0.019,0.055-0.038,0.092v-0.018l-1.565-0.95L36.13,60.12
				c0.28,0.167,0.541,0.335,0.82,0.503c0.28,0.168,0.541,0.336,0.802,0.503c0.038,0.037,0.093,0.074,0.149,0.093
				c0.055,0.038,0.111,0.075,0.167,0.112c0.075-0.112,0.149-0.261,0.242-0.447c0.094-0.187,0.167-0.354,0.261-0.541v0.02
				l1.566,0.951c0.093-0.15,0.167-0.299,0.242-0.43c0.075-0.149,0.149-0.299,0.224-0.429c0.075-0.148,0.149-0.298,0.224-0.447
				c0.094-0.167,0.167-0.316,0.242-0.447L39.15,58.405z M42.692,53.838h-0.876V53.8c-0.019-0.279-0.056-0.596-0.149-0.932
				c-0.075-0.335-0.167-0.672-0.261-1.006c-0.149-0.393-0.316-0.802-0.484-1.212c-0.187-0.411-0.392-0.821-0.597-1.193
				c-0.094,0.205-0.187,0.391-0.279,0.577c-0.094,0.187-0.187,0.392-0.299,0.578c-0.056,0.131-0.093,0.243-0.149,0.355
				c-0.056,0.093-0.112,0.204-0.149,0.298c-0.057,0.111-0.112,0.241-0.168,0.354c-0.075,0.131-0.13,0.261-0.186,0.373
				c0.111,0.019,0.243,0.094,0.373,0.204c0.131,0.113,0.262,0.242,0.373,0.392c0.131,0.168,0.224,0.337,0.316,0.504
				c0.075,0.187,0.131,0.354,0.168,0.504v0.036c-0.038,0.019-0.149,0.057-0.317,0.075c-0.167,0.037-0.373,0.057-0.633,0.057
				c-0.242,0.018-0.541,0.018-0.839,0.036c-0.317,0-0.634,0.019-0.951,0.019c-0.336,0-0.653,0.02-0.951,0.02
				c-0.317,0-0.596,0-0.839,0h-0.317v2.907h7.214V53.838z M51.623,53.838h-1.025v-0.02c-0.168-0.316-0.374-0.671-0.634-1.062
				c-0.279-0.372-0.578-0.745-0.914-1.137c-0.167-0.149-0.336-0.336-0.522-0.521c-0.187-0.188-0.391-0.373-0.578-0.56
				c-0.037-0.056-0.093-0.094-0.149-0.149c-0.056-0.056-0.094-0.094-0.149-0.15c-0.205-0.205-0.429-0.428-0.671-0.652
				c-0.242-0.242-0.484-0.466-0.727-0.69c-0.261-0.224-0.503-0.447-0.746-0.652s-0.466-0.391-0.689-0.54V47.63l5.275-2.144
				c0.019-0.037,0.056-0.15,0.13-0.298c0.056-0.149,0.131-0.335,0.224-0.541c0.093-0.205,0.187-0.429,0.28-0.671
				c0.093-0.224,0.205-0.448,0.28-0.652c0.093-0.205,0.167-0.373,0.224-0.504c0.055-0.149,0.093-0.223,0.111-0.242
				c-2.535,1.025-4.474,1.864-5.835,2.499c-1.38,0.652-2.144,1.081-2.312,1.323c-0.167,0.261-0.297,0.541-0.391,0.801
				c-0.112,0.279-0.168,0.541-0.168,0.764c0,0.262,0.056,0.522,0.149,0.746c0.075,0.243,0.205,0.466,0.392,0.69
				c0.168,0.224,0.373,0.448,0.597,0.652c0.242,0.205,0.485,0.41,0.783,0.616c0-0.037,0.019-0.112,0.037-0.187
				c0.019-0.074,0.037-0.148,0.057-0.224c0.018-0.037,0.018-0.093,0.037-0.131c0.018-0.036,0.018-0.093,0.037-0.13v-0.018
				c0.149,0.093,0.317,0.223,0.522,0.391c0.206,0.187,0.43,0.373,0.653,0.578c0.224,0.205,0.447,0.429,0.689,0.671
				c0.242,0.243,0.466,0.467,0.69,0.69c0.205,0.224,0.41,0.446,0.578,0.634c0.167,0.204,0.317,0.372,0.429,0.521v0.038
				c-0.037,0.075-0.206,0.148-0.466,0.187c-0.279,0.038-0.634,0.075-1.1,0.093c-0.466,0.037-1.025,0.037-1.659,0.037
				c-0.653,0.02-1.361,0.02-2.145,0.02h-0.689v2.907h3.971c0.335,0,0.671,0,0.969,0c0.316,0,0.578,0,0.82,0.02
				c0.242,0,0.428,0,0.578,0c0.148,0,0.224,0,0.242,0c0.149,0,0.317,0,0.503,0c0.187-0.02,0.374-0.02,0.56-0.02h1.752V53.838z
				 M56.358,52.998c0.187-0.093,0.354-0.148,0.541-0.148c0.149,0,0.28,0.038,0.429,0.094c0.149,0.074,0.28,0.168,0.391,0.279
				c0.112,0.112,0.224,0.241,0.299,0.409c0.093,0.149,0.148,0.317,0.187,0.503c-0.038,0.021-0.075,0.021-0.112,0.021
				s-0.074,0-0.093,0c-0.168,0-0.335-0.021-0.522-0.057c-0.205-0.038-0.391-0.094-0.597-0.149c-0.186-0.075-0.373-0.149-0.56-0.223
				c-0.167-0.076-0.317-0.149-0.428-0.225C56.041,53.26,56.19,53.092,56.358,52.998L56.358,52.998z M58.875,56.745
				c0.131-0.093,0.242-0.225,0.354-0.41c0.093-0.167,0.187-0.354,0.242-0.576c0.075-0.206,0.13-0.43,0.167-0.674
				c0.038-0.24,0.056-0.465,0.056-0.688c0-0.149,0-0.28-0.019-0.374c0-0.111-0.038-0.205-0.075-0.316
				c-0.13-0.429-0.298-0.857-0.503-1.269c-0.187-0.409-0.41-0.764-0.634-1.08c-0.224-0.298-0.447-0.559-0.689-0.746
				c-0.243-0.186-0.484-0.279-0.746-0.279c-0.335,0-0.709,0.205-1.063,0.615c-0.373,0.392-0.727,1.007-1.062,1.808
				c-0.094,0.205-0.168,0.374-0.262,0.522c-0.074,0.148-0.149,0.242-0.224,0.299c-0.13,0.092-1.212,0.13-3.262,0.13v3.038h2.218
				c0.186,0,0.354,0,0.503-0.019c0.149,0,0.279-0.037,0.41-0.111c0.13-0.056,0.242-0.149,0.354-0.298
				c0.093-0.131,0.187-0.318,0.28-0.578v0.02c0.149,0.11,0.299,0.223,0.429,0.316c0.149,0.111,0.261,0.223,0.392,0.316
				c0.13,0.111,0.26,0.224,0.391,0.335c0.13,0.112,0.261,0.205,0.41,0.3c0.13,0.074,0.279,0.148,0.428,0.205
				c0.149,0.055,0.318,0.073,0.485,0.073L58.875,56.745z M75.448,53.838h-0.914c-0.261,0-0.541,0.074-0.876,0.261
				s-0.634,0.448-0.932,0.783c-0.279,0.354-0.522,0.764-0.727,1.268c-0.206,0.485-0.298,1.045-0.298,1.659
				c0,0.187,0.038,0.372,0.131,0.559s0.224,0.372,0.373,0.54c0.149,0.168,0.316,0.337,0.503,0.466
				c0.187,0.15,0.391,0.263,0.597,0.355v0.055c-0.168,0.095-0.373,0.187-0.597,0.281c-0.243,0.074-0.485,0.147-0.765,0.223
				c-0.26,0.056-0.559,0.112-0.857,0.13c-0.298,0.038-0.616,0.058-0.914,0.058c-0.429,0-0.857-0.038-1.286-0.112
				c-0.411-0.075-0.783-0.188-1.119-0.354s-0.597-0.392-0.802-0.652c-0.205-0.28-0.298-0.616-0.298-1.008
				c0-0.092,0-0.223,0.038-0.353c0.038-0.131,0.075-0.28,0.149-0.43c0.056-0.148,0.111-0.297,0.186-0.465
				c0.075-0.15,0.131-0.316,0.206-0.466c0.131-0.3,0.261-0.579,0.373-0.84c0.093-0.279,0.149-0.504,0.149-0.689
				c0-0.074-0.019-0.131-0.037-0.187c-0.038-0.057-0.075-0.111-0.169-0.148c-0.298,0.278-0.596,0.597-0.876,0.95
				c-0.298,0.354-0.54,0.727-0.764,1.137c-0.242,0.411-0.41,0.839-0.54,1.268c-0.131,0.429-0.206,0.856-0.206,1.286
				c0,0.447,0.056,0.858,0.187,1.23c0.13,0.354,0.298,0.689,0.541,0.97c0.224,0.279,0.484,0.522,0.801,0.728
				c0.298,0.223,0.634,0.391,1.006,0.521c0.354,0.13,0.746,0.223,1.156,0.298c0.41,0.056,0.82,0.094,1.23,0.094
				c0.577,0,1.137-0.057,1.696-0.169c0.56-0.111,1.082-0.261,1.567-0.465c0.484-0.225,0.932-0.466,1.304-0.766
				c0.392-0.316,0.69-0.652,0.895-1.025c0.149-0.484,0.242-0.932,0.317-1.36c0.075-0.428,0.149-0.838,0.205-1.248
				c-0.075-0.019-0.187-0.038-0.373-0.094c-0.168-0.056-0.354-0.13-0.559-0.205c-0.206-0.074-0.411-0.168-0.634-0.261
				c-0.205-0.074-0.411-0.168-0.578-0.242c-0.187-0.075-0.335-0.148-0.447-0.205c-0.112-0.057-0.168-0.075-0.168-0.094
				c0-0.092,0.056-0.148,0.168-0.204c0.112-0.057,0.26-0.094,0.429-0.112c0.186-0.037,0.373-0.037,0.56-0.037
				c0.205-0.02,0.391-0.02,0.559-0.02h0.41V53.838z M77.537,45.077c-0.038,0.093-0.093,0.167-0.149,0.279
				c-0.057,0.093-0.094,0.186-0.149,0.261c-0.093,0.205-0.205,0.391-0.298,0.578c-0.112,0.205-0.224,0.392-0.335,0.597
				c0.093,0.055,0.187,0.111,0.28,0.167c0.093,0.056,0.167,0.112,0.261,0.167c0.223,0.149,0.465,0.299,0.689,0.429
				c0.224,0.149,0.466,0.279,0.708,0.429c0.131-0.224,0.243-0.448,0.373-0.671c0.112-0.243,0.224-0.467,0.354-0.689
				c0.018-0.057,0.056-0.112,0.093-0.187c0.056-0.075,0.075-0.149,0.112-0.205L77.537,45.077z M81.247,53.147
				c-0.075-0.409-0.187-0.876-0.336-1.397c-0.149-0.484-0.317-0.914-0.504-1.306c-0.186-0.391-0.391-0.727-0.596-0.987
				c-0.019,0.018-0.019,0.036-0.037,0.055c0,0.038-0.019,0.056-0.019,0.094l-0.056,0.111c-0.205,0.374-0.391,0.764-0.559,1.118
				c-0.168,0.374-0.354,0.766-0.559,1.156c0.131,0.019,0.261,0.074,0.391,0.187c0.15,0.112,0.28,0.242,0.392,0.409
				c0.112,0.168,0.224,0.337,0.317,0.523c0.075,0.187,0.13,0.372,0.149,0.539c0,0.038-0.075,0.076-0.187,0.094
				c-0.112,0.02-0.261,0.056-0.447,0.056c-0.187,0.019-0.41,0.038-0.671,0.038c-0.242,0-0.503,0.019-0.783,0.019s-0.559,0-0.839,0
				c-0.28,0-0.541-0.019-0.802-0.019h-0.242c-0.056,0-0.111,0-0.186,0c-0.056,0-0.112,0-0.168,0h-0.522v2.907h5.779
				c0.411,0,0.616-0.857,0.616-2.61C81.377,53.894,81.321,53.558,81.247,53.147L81.247,53.147z M85.572,43.398
				c-0.131,0.112-0.243,0.243-0.373,0.373c-0.112,0.112-0.242,0.243-0.373,0.392v-0.019c-0.037,0.038-0.075,0.094-0.112,0.131
				c-0.037,0.037-0.093,0.075-0.13,0.13c-0.112,0.112-0.224,0.243-0.336,0.354c-0.093,0.112-0.224,0.224-0.335,0.336
				c-0.056,0.056-0.112,0.111-0.167,0.167c-0.057,0.056-0.112,0.112-0.168,0.168v11.296c0.299-0.335,0.579-0.671,0.858-1.025
				c0.019-0.037,0.056-0.074,0.075-0.093c0.019-0.037,0.037-0.056,0.075-0.093c0.167-0.206,0.335-0.41,0.502-0.597
				c0.168-0.205,0.336-0.41,0.485-0.615V43.398z"/>
			<path fill="#FFFFFF" d="M94.018,53.838h-0.652V53.8c-0.205-0.633-0.485-1.193-0.802-1.641s-0.671-0.801-1.043-1.044
				c-0.205,0.43-0.411,0.858-0.634,1.269c-0.093,0.223-0.205,0.429-0.317,0.634c-0.094,0.224-0.205,0.446-0.317,0.671
				c0.634,0.446,1.136,0.84,1.491,1.156c0.354,0.317,0.541,0.614,0.541,0.876c0,0.335-0.093,0.689-0.261,1.024
				c-0.186,0.335-0.448,0.635-0.802,0.896c-0.354,0.261-0.802,0.484-1.324,0.634c-0.521,0.168-1.118,0.262-1.808,0.262
				c-0.187,0-0.392-0.021-0.653-0.021s-0.522-0.018-0.802-0.055c-0.261-0.019-0.54-0.056-0.802-0.113
				c-0.28-0.055-0.502-0.129-0.708-0.203v0.595c0.634,0.858,1.268,1.492,1.883,1.902c0.633,0.409,1.23,0.615,1.79,0.615
				c0.447,0,0.932-0.111,1.454-0.298c0.541-0.205,1.063-0.522,1.566-0.989c0.447-0.409,0.82-0.875,1.1-1.416
				c0.28-0.559,0.485-1.137,0.597-1.789v-0.02h0.503V53.838z M97.206,58.405c-0.037,0.056-0.055,0.093-0.075,0.148
				c-0.037,0.036-0.055,0.094-0.074,0.131c-0.019,0.037-0.037,0.074-0.074,0.131c-0.038,0.037-0.057,0.092-0.075,0.129
				c-0.037,0.057-0.093,0.15-0.13,0.243c-0.018,0.038-0.037,0.057-0.056,0.094c0,0.037-0.019,0.055-0.037,0.092v-0.018l-1.565-0.933
				c-0.15,0.279-0.299,0.578-0.467,0.858c-0.148,0.279-0.298,0.56-0.465,0.839c0.335,0.205,0.652,0.41,0.969,0.614
				c0.316,0.188,0.633,0.392,0.969,0.579c0.074-0.095,0.149-0.243,0.242-0.411c0.093-0.186,0.167-0.372,0.261-0.56v0.02l1.566,0.951
				c0.148-0.28,0.317-0.579,0.465-0.877c0.149-0.298,0.298-0.596,0.466-0.876L97.206,58.405z M99.797,53.147
				c-0.074-0.409-0.186-0.876-0.335-1.397c-0.149-0.484-0.317-0.914-0.504-1.306c-0.187-0.391-0.392-0.727-0.597-0.987
				c-0.019,0.018-0.019,0.036-0.037,0.055c0,0.038-0.019,0.056-0.019,0.094l-0.056,0.111c-0.205,0.374-0.392,0.764-0.559,1.118
				c-0.168,0.374-0.354,0.766-0.56,1.156c0.131,0.019,0.262,0.074,0.392,0.187c0.15,0.112,0.28,0.242,0.392,0.409
				c0.112,0.168,0.223,0.337,0.317,0.523c0.074,0.187,0.13,0.372,0.149,0.539c0,0.038-0.075,0.076-0.186,0.094
				c-0.112,0.02-0.262,0.056-0.448,0.056c-0.186,0.019-0.411,0.038-0.671,0.038c-0.243,0-0.504,0.019-0.784,0.019s-0.559,0-0.838,0
				s-0.54-0.019-0.802-0.019H94.41c-0.056,0-0.112,0-0.187,0c-0.056,0-0.112,0-0.168,0h-0.522v2.907h5.779
				c0.41,0,0.615-0.857,0.615-2.61C99.928,53.894,99.872,53.558,99.797,53.147L99.797,53.147z M104.123,43.398
				c-0.13,0.112-0.243,0.243-0.373,0.373c-0.112,0.112-0.242,0.243-0.373,0.392v-0.019c-0.038,0.038-0.075,0.094-0.112,0.131
				c-0.037,0.037-0.093,0.075-0.13,0.13c-0.112,0.112-0.223,0.243-0.335,0.354c-0.093,0.112-0.224,0.224-0.336,0.336
				c-0.056,0.056-0.112,0.111-0.168,0.167c-0.056,0.056-0.111,0.112-0.168,0.168v11.296c0.298-0.335,0.579-0.671,0.858-1.025
				c0.019-0.037,0.056-0.074,0.075-0.093c0.019-0.037,0.038-0.056,0.074-0.093c0.168-0.206,0.336-0.41,0.503-0.597
				c0.167-0.205,0.336-0.41,0.485-0.615V43.398z M114.004,47.313c-0.075,0.149-0.168,0.298-0.262,0.447
				c-0.074,0.168-0.167,0.317-0.26,0.485c-0.058,0.112-0.131,0.243-0.206,0.392c-0.056,0.13-0.13,0.261-0.205,0.391
				c0.242,0.131,0.466,0.28,0.689,0.43c0.243,0.149,0.466,0.279,0.69,0.428l0.56,0.299c0.148-0.28,0.316-0.56,0.446-0.839
				c0.093-0.149,0.168-0.28,0.261-0.448c0.074-0.149,0.149-0.298,0.224-0.428L114.004,47.313z M119.67,53.874
				c-0.111-0.41-0.261-0.856-0.447-1.341c-0.186-0.485-0.391-0.951-0.615-1.398c-0.148,0.186-0.28,0.335-0.429,0.503
				c-0.131,0.149-0.279,0.317-0.41,0.484c-0.15,0.169-0.298,0.336-0.448,0.504c-0.148,0.187-0.298,0.354-0.447,0.521
				c0.243,0.188,0.447,0.41,0.634,0.652c0.167,0.242,0.316,0.485,0.427,0.747c0.112,0.278,0.188,0.538,0.243,0.82
				c0.055,0.278,0.074,0.558,0.074,0.856c0,0.224-0.037,0.411-0.13,0.561v-0.02c-0.112,0.167-0.28,0.336-0.504,0.467
				c-0.206,0.129-0.447,0.24-0.708,0.354c-0.261,0.111-0.522,0.204-0.802,0.279c-0.279,0.074-0.56,0.131-0.821,0.187
				c-0.278,0.037-0.522,0.074-0.763,0.111c-0.224,0.019-0.429,0.019-0.578,0.019c-2.013,0-3.02-0.689-3.02-2.105
				c0-0.896,0.316-1.92,0.969-3.039V52.85c-0.167,0.168-0.372,0.41-0.615,0.728c-0.242,0.316-0.503,0.708-0.782,1.174v-0.019
				c-0.279,0.504-0.504,1.007-0.653,1.51c-0.167,0.522-0.242,1.026-0.242,1.547c0,0.467,0.075,0.913,0.224,1.324
				c0.13,0.41,0.373,0.782,0.671,1.099c0.316,0.299,0.708,0.56,1.174,0.728c0.484,0.187,1.043,0.279,1.696,0.279
				c0.391,0,0.783-0.036,1.174-0.11c0.41-0.075,0.802-0.169,1.193-0.3c0.392-0.111,0.764-0.26,1.137-0.429
				c0.354-0.148,0.69-0.315,0.969-0.484c0.243-0.167,0.466-0.372,0.709-0.614c0.242-0.261,0.448-0.56,0.652-0.896
				c0.187-0.354,0.335-0.744,0.465-1.19c0.131-0.449,0.187-0.952,0.187-1.511c-0.019-0.225-0.037-0.467-0.056-0.746
				c-0.019-0.28-0.056-0.578-0.093-0.857L119.67,53.874z M124.09,43.398c-0.13,0.112-0.242,0.243-0.373,0.373
				c-0.111,0.112-0.241,0.243-0.372,0.392v-0.019c-0.037,0.038-0.075,0.094-0.112,0.131c-0.038,0.037-0.093,0.075-0.13,0.13
				c-0.112,0.112-0.224,0.243-0.336,0.354c-0.093,0.112-0.223,0.224-0.335,0.336c-0.056,0.056-0.111,0.111-0.168,0.167
				c-0.056,0.056-0.112,0.112-0.167,0.168v11.296c0.298-0.335,0.577-0.671,0.858-1.025c0.018-0.037,0.056-0.074,0.074-0.093
				c0.019-0.037,0.037-0.056,0.075-0.093c0.167-0.206,0.336-0.41,0.503-0.597c0.167-0.205,0.335-0.41,0.484-0.615V43.398z"/>
			<path fill="#FFFFFF" d="M132.536,53.838h-0.652V53.8c-0.206-0.633-0.485-1.193-0.803-1.641c-0.316-0.447-0.67-0.801-1.043-1.044
				c-0.206,0.43-0.41,0.858-0.634,1.269c-0.093,0.223-0.205,0.429-0.317,0.634c-0.093,0.224-0.205,0.446-0.316,0.671
				c0.633,0.446,1.137,0.84,1.491,1.156c0.354,0.317,0.542,0.614,0.542,0.876c0,0.335-0.094,0.689-0.261,1.024
				c-0.187,0.335-0.448,0.635-0.802,0.896c-0.354,0.261-0.801,0.484-1.323,0.634c-0.522,0.168-1.119,0.262-1.809,0.262
				c-0.186,0-0.392-0.021-0.652-0.021c-0.261,0-0.522-0.018-0.801-0.055c-0.261-0.019-0.542-0.056-0.802-0.113
				c-0.279-0.055-0.503-0.129-0.708-0.203v0.595c0.633,0.858,1.268,1.492,1.882,1.902c0.634,0.409,1.23,0.615,1.79,0.615
				c0.448,0,0.933-0.111,1.455-0.298c0.54-0.205,1.062-0.522,1.565-0.989c0.447-0.409,0.82-0.875,1.1-1.416
				c0.281-0.559,0.486-1.137,0.597-1.789v-0.02h0.504V53.838z M134.83,58.498c-0.094,0.149-0.169,0.298-0.262,0.466
				c-0.073,0.149-0.167,0.299-0.241,0.447c-0.075,0.112-0.13,0.242-0.206,0.392c-0.075,0.13-0.148,0.28-0.223,0.392
				c0.075,0.056,0.148,0.112,0.223,0.148c0.076,0.037,0.149,0.094,0.224,0.149c0.261,0.149,0.504,0.299,0.745,0.447
				c0.243,0.169,0.485,0.317,0.747,0.466c0.093-0.148,0.166-0.316,0.241-0.483c0.093-0.15,0.168-0.317,0.262-0.467
				c0.055-0.13,0.13-0.261,0.205-0.409c0.075-0.131,0.149-0.28,0.206-0.41L134.83,58.498z M138.316,53.147
				c-0.075-0.409-0.188-0.876-0.336-1.397c-0.148-0.484-0.316-0.914-0.504-1.306c-0.186-0.391-0.392-0.727-0.596-0.987
				c-0.019,0.018-0.019,0.036-0.037,0.055c0,0.038-0.02,0.056-0.02,0.094l-0.056,0.111c-0.206,0.374-0.391,0.764-0.56,1.118
				c-0.167,0.374-0.354,0.766-0.56,1.156c0.131,0.019,0.261,0.074,0.392,0.187c0.149,0.112,0.28,0.242,0.392,0.409
				c0.112,0.168,0.223,0.337,0.317,0.523c0.074,0.187,0.13,0.372,0.148,0.539c0,0.038-0.075,0.076-0.186,0.094
				c-0.113,0.02-0.261,0.056-0.448,0.056c-0.186,0.019-0.409,0.038-0.671,0.038c-0.242,0-0.503,0.019-0.782,0.019
				c-0.28,0-0.56,0-0.838,0c-0.28,0-0.542-0.019-0.803-0.019h-0.241c-0.057,0-0.113,0-0.187,0c-0.056,0-0.112,0-0.168,0h-0.521
				v2.907h5.78c0.409,0,0.615-0.857,0.615-2.61C138.446,53.894,138.39,53.558,138.316,53.147L138.316,53.147z"/>
			<path fill="#FFFFFF" d="M146.351,54.323c-0.093-0.449-0.223-0.84-0.392-1.212c-0.205-0.429-0.447-0.82-0.727-1.175
				c-0.279-0.354-0.559-0.634-0.857-0.821c-0.111,0.205-0.205,0.43-0.317,0.635c-0.093,0.224-0.205,0.429-0.298,0.634
				c-0.111,0.223-0.206,0.429-0.317,0.634c-0.112,0.224-0.224,0.446-0.316,0.671c0.615,0.446,1.118,0.84,1.472,1.156
				c0.354,0.317,0.54,0.614,0.559,0.876c0,0.335-0.093,0.689-0.279,1.024c-0.187,0.335-0.447,0.635-0.802,0.896
				s-0.784,0.484-1.305,0.634c-0.522,0.168-1.118,0.262-1.808,0.262c-0.187,0-0.411-0.021-0.671-0.021
				c-0.242,0-0.522-0.018-0.783-0.055c-0.279-0.019-0.541-0.056-0.82-0.113c-0.261-0.055-0.502-0.129-0.69-0.203v0.595
				c0.634,0.858,1.268,1.492,1.883,1.902c0.615,0.409,1.211,0.615,1.79,0.615c0.429,0,0.913-0.111,1.455-0.298
				c0.522-0.205,1.043-0.522,1.546-0.989c0.597-0.539,1.043-1.192,1.361-1.938c0.298-0.745,0.448-1.547,0.448-2.423
				C146.481,55.18,146.444,54.751,146.351,54.323L146.351,54.323z M151.907,53.838h-0.783c-0.13,0-0.243-0.057-0.316-0.131
				c-0.057-0.075-0.112-0.187-0.112-0.335v-9.955c-0.056,0.037-0.113,0.094-0.15,0.149c-0.056,0.056-0.112,0.112-0.167,0.149
				c-0.113,0.111-0.224,0.223-0.336,0.354c-0.112,0.112-0.223,0.224-0.335,0.335c-0.168,0.187-0.334,0.354-0.502,0.522
				c-0.169,0.168-0.336,0.336-0.504,0.504v8.053c0,1.063,0.187,1.864,0.542,2.423c0.354,0.56,0.857,0.839,1.547,0.839h1.118V53.838z
				 M151.422,53.838v2.907h6.636c0.373,0,0.69-0.056,0.951-0.149c0.243-0.111,0.447-0.261,0.613-0.446
				c0.151-0.187,0.263-0.41,0.338-0.672c0.074-0.241,0.111-0.503,0.111-0.783c0-0.166-0.057-0.371-0.149-0.596
				c-0.094-0.242-0.223-0.503-0.372-0.764c-0.168-0.262-0.355-0.56-0.579-0.839c-0.223-0.3-0.446-0.597-0.689-0.877
				c-0.187-0.167-0.354-0.336-0.56-0.521c-0.187-0.188-0.371-0.392-0.558-0.578c-0.057-0.056-0.095-0.093-0.149-0.13
				c-0.039-0.056-0.094-0.094-0.131-0.15v0.019c-0.037-0.074-0.075-0.112-0.113-0.131c-0.035-0.036-0.055-0.055-0.094-0.093
				l-0.092-0.075c-0.205-0.205-0.41-0.41-0.633-0.615c-0.225-0.205-0.43-0.41-0.652-0.597c-0.226-0.205-0.43-0.392-0.653-0.559
				c-0.205-0.187-0.41-0.335-0.616-0.484V47.63l5.276-2.144c0-0.018,0.037-0.112,0.093-0.261c0.076-0.13,0.15-0.299,0.223-0.504
				c0.095-0.205,0.188-0.429,0.281-0.671c0.111-0.224,0.204-0.447,0.299-0.652c0.094-0.205,0.167-0.391,0.223-0.541
				c0.074-0.148,0.112-0.242,0.131-0.279c-2.516,1.044-4.475,1.882-5.834,2.517c-1.381,0.633-2.144,1.062-2.312,1.286
				c-0.167,0.279-0.298,0.54-0.391,0.82c-0.113,0.279-0.15,0.541-0.15,0.764c0,0.522,0.168,0.988,0.522,1.436
				c0.334,0.429,0.801,0.857,1.361,1.268c0.019-0.075,0.056-0.187,0.093-0.317s0.074-0.242,0.111-0.354v-0.018
				c0.131,0.093,0.318,0.223,0.504,0.391c0.205,0.187,0.429,0.373,0.652,0.578s0.449,0.429,0.689,0.671
				c0.244,0.243,0.467,0.467,0.689,0.69c0.206,0.224,0.411,0.446,0.578,0.634c0.168,0.204,0.318,0.372,0.43,0.521v0.038
				c-0.038,0.075-0.205,0.148-0.467,0.187s-0.634,0.075-1.1,0.093c-0.467,0.037-1.006,0.037-1.658,0.037
				c-0.636,0.02-1.361,0.02-2.144,0.02H151.422z M170.4,47.313c-0.074,0.149-0.168,0.298-0.26,0.447
				c-0.075,0.168-0.168,0.317-0.262,0.485c-0.056,0.112-0.13,0.243-0.206,0.392c-0.055,0.13-0.13,0.261-0.203,0.391
				c0.241,0.131,0.465,0.28,0.688,0.43c0.242,0.149,0.466,0.279,0.69,0.428l0.56,0.317c0.149-0.298,0.316-0.578,0.466-0.857
				c0.168-0.299,0.316-0.579,0.484-0.876L170.4,47.313z M176.498,53.838h-0.468V53.8c-0.092-0.428-0.243-0.856-0.429-1.323
				c-0.187-0.466-0.392-0.913-0.597-1.342c-0.148,0.168-0.279,0.335-0.429,0.503c-0.13,0.149-0.279,0.317-0.429,0.484
				c-0.131,0.169-0.278,0.354-0.428,0.522c-0.15,0.168-0.299,0.336-0.43,0.503c0.241,0.188,0.447,0.41,0.615,0.652
				c0.169,0.242,0.317,0.485,0.43,0.747c0.111,0.278,0.186,0.538,0.241,0.82c0.058,0.278,0.075,0.558,0.075,0.856
				c0,0.224-0.038,0.411-0.112,0.561v-0.02c-0.131,0.167-0.298,0.336-0.502,0.467c-0.225,0.129-0.448,0.24-0.71,0.354
				c-0.26,0.111-0.54,0.204-0.819,0.279c-0.28,0.074-0.56,0.131-0.82,0.187c-0.279,0.037-0.521,0.074-0.765,0.111
				c-0.224,0.019-0.43,0.019-0.577,0.019c-2.015,0-3.021-0.689-3.021-2.105c0-0.896,0.316-1.92,0.97-3.039V52.85
				c-0.168,0.168-0.373,0.41-0.615,0.728c-0.243,0.316-0.504,0.708-0.784,1.174v-0.019c-0.279,0.504-0.503,1.007-0.651,1.51
				c-0.168,0.522-0.243,1.026-0.243,1.547c0,0.467,0.075,0.913,0.225,1.324c0.13,0.41,0.371,0.782,0.67,1.099
				c0.317,0.299,0.709,0.56,1.176,0.728c0.484,0.187,1.043,0.279,1.695,0.279c0.392,0,0.783-0.036,1.175-0.11
				c0.41-0.075,0.801-0.169,1.192-0.3c0.393-0.111,0.766-0.26,1.119-0.409c0.354-0.168,0.69-0.316,0.97-0.484
				c0.186-0.132,0.372-0.299,0.576-0.504c0.206-0.186,0.392-0.43,0.58-0.672c0.168-0.26,0.335-0.559,0.466-0.894
				c0.147-0.317,0.242-0.69,0.297-1.081v-0.02h0.356V53.838z M181.251,52.998c0.169-0.093,0.335-0.148,0.521-0.148
				c0.149,0,0.299,0.038,0.448,0.094c0.149,0.074,0.279,0.168,0.392,0.279c0.111,0.112,0.225,0.241,0.299,0.409
				c0.093,0.149,0.148,0.317,0.186,0.503c-0.055,0.021-0.093,0.021-0.113,0.021c-0.036,0-0.072,0-0.093,0
				c-0.148,0-0.335-0.021-0.521-0.057c-0.206-0.038-0.392-0.094-0.598-0.149c-0.187-0.075-0.371-0.149-0.559-0.223
				c-0.167-0.076-0.317-0.149-0.428-0.225C180.916,53.278,181.083,53.111,181.251,52.998L181.251,52.998z M186.005,53.707h-1.51
				v0.02c-0.148-0.448-0.317-0.896-0.504-1.306c-0.186-0.41-0.41-0.764-0.616-1.081c-0.223-0.317-0.464-0.56-0.707-0.728
				c-0.243-0.186-0.504-0.279-0.746-0.279c-0.354,0-0.708,0.205-1.08,0.615c-0.373,0.392-0.728,1.007-1.063,1.808
				c-0.074,0.205-0.168,0.374-0.242,0.522c-0.094,0.131-0.168,0.242-0.223,0.299c-0.038,0.019-0.131,0.037-0.243,0.055
				c-0.13,0.019-0.316,0.037-0.54,0.037c-0.243,0.02-0.541,0.02-0.896,0.038c-0.374,0-0.803,0-1.323,0h-0.262v3.038h2.219
				c0.167,0,0.336,0,0.485-0.019c0.147,0,0.279-0.037,0.409-0.111c0.13-0.056,0.243-0.149,0.354-0.298
				c0.112-0.131,0.204-0.318,0.281-0.578v0.02c0.146,0.092,0.297,0.204,0.408,0.297c0.13,0.112,0.243,0.205,0.354,0.299
				c0.021,0.019,0.038,0.019,0.058,0.037c0.13,0.111,0.26,0.224,0.392,0.335c0.13,0.112,0.278,0.205,0.41,0.3
				c0.148,0.074,0.297,0.148,0.466,0.205c0.148,0.055,0.315,0.073,0.484,0.073c0.186,0,0.409-0.036,0.651-0.149
				c0.243-0.093,0.505-0.241,0.766-0.429v0.019h2.218V53.707z M190.572,58.145l-0.278,0.54c-0.113,0.187-0.206,0.391-0.318,0.597
				c-0.111,0.186-0.223,0.392-0.334,0.597c0.147,0.092,0.297,0.187,0.446,0.279c0.168,0.093,0.316,0.186,0.447,0.279
				c0.187,0.112,0.354,0.225,0.522,0.335c0.167,0.095,0.334,0.205,0.521,0.299l0.112-0.225c0.131-0.261,0.261-0.521,0.41-0.763
				c0.13-0.242,0.26-0.504,0.41-0.747L190.572,58.145z M198.197,53.838h-0.337c-0.203-0.02-0.408-0.057-0.613-0.131
				c-0.224-0.093-0.43-0.167-0.616-0.28c-0.299-0.204-0.578-0.391-0.819-0.597c-0.261-0.204-0.505-0.409-0.729-0.614
				c-0.187-0.149-0.354-0.298-0.539-0.447c-0.188-0.149-0.374-0.316-0.578-0.466c-0.056-0.037-0.095-0.075-0.149-0.112
				c-0.056-0.037-0.112-0.075-0.168-0.112c-0.224-0.168-0.466-0.354-0.727-0.54c-0.28-0.187-0.54-0.354-0.82-0.521
				c-0.262-0.149-0.541-0.28-0.784-0.374c-0.26-0.111-0.503-0.167-0.708-0.167c-0.279,0-0.559,0.075-0.82,0.187
				c-0.278,0.13-0.538,0.354-0.8,0.671c-0.095,0.111-0.262,0.373-0.522,0.782c-0.261,0.411-0.579,0.971-0.97,1.679
				c0.56-0.242,1.062-0.41,1.473-0.522c0.429-0.112,0.801-0.168,1.155-0.168c0.299,0,0.597,0.056,0.895,0.149
				c0.318,0.111,0.635,0.243,0.951,0.41c0.318,0.167,0.614,0.373,0.932,0.597c0.316,0.204,0.616,0.447,0.914,0.689v0.074
				c-0.224,0.019-0.43,0.019-0.652,0.019s-0.429,0-0.652,0c-0.877,0-1.771-0.019-2.666-0.056s-1.771-0.074-2.628-0.112
				c-0.15-0.018-0.261-0.018-0.392-0.018c-0.131-0.019-0.242-0.019-0.374-0.019h-0.912v2.907h12.657V53.838z M200.285,45.077
				c-0.037,0.093-0.093,0.167-0.147,0.279c-0.056,0.093-0.094,0.186-0.149,0.261c-0.094,0.205-0.206,0.391-0.298,0.578
				c-0.113,0.205-0.224,0.392-0.336,0.597c0.094,0.055,0.186,0.111,0.278,0.167c0.096,0.056,0.168,0.112,0.262,0.167
				c0.225,0.149,0.466,0.299,0.689,0.429c0.224,0.149,0.466,0.279,0.709,0.429c0.131-0.224,0.242-0.448,0.373-0.671
				c0.111-0.243,0.223-0.467,0.354-0.689c0.019-0.057,0.056-0.112,0.096-0.187c0.054-0.075,0.072-0.149,0.11-0.205L200.285,45.077z
				 M203.996,53.147c-0.075-0.409-0.186-0.876-0.335-1.397c-0.15-0.484-0.316-0.914-0.503-1.306
				c-0.188-0.391-0.392-0.727-0.598-0.987c-0.019,0.018-0.019,0.036-0.037,0.055c0,0.038-0.019,0.056-0.019,0.094l-0.057,0.111
				c-0.205,0.374-0.392,0.764-0.56,1.118c-0.166,0.374-0.354,0.766-0.558,1.156c0.13,0.019,0.261,0.074,0.392,0.187
				c0.148,0.112,0.278,0.242,0.393,0.409c0.11,0.168,0.222,0.337,0.315,0.523c0.074,0.187,0.13,0.372,0.148,0.539
				c0,0.038-0.074,0.076-0.186,0.094c-0.114,0.02-0.261,0.056-0.447,0.056c-0.188,0.019-0.411,0.038-0.672,0.038
				c-0.242,0-0.503,0.019-0.783,0.019c-0.278,0-0.56,0-0.837,0c-0.281,0-0.543-0.019-0.804-0.019h-0.242c-0.057,0-0.111,0-0.186,0
				c-0.058,0-0.112,0-0.168,0h-0.521v2.907h5.777c0.41,0,0.616-0.857,0.616-2.61C204.127,53.894,204.07,53.558,203.996,53.147
				L203.996,53.147z M208.321,43.398c-0.13,0.112-0.241,0.243-0.372,0.373c-0.113,0.112-0.242,0.243-0.374,0.392v-0.019
				c-0.037,0.038-0.074,0.094-0.11,0.131c-0.038,0.037-0.095,0.075-0.131,0.13c-0.112,0.112-0.225,0.243-0.336,0.354
				c-0.093,0.112-0.225,0.224-0.335,0.336c-0.058,0.056-0.113,0.111-0.169,0.167c-0.055,0.056-0.111,0.112-0.168,0.168v11.296
				c0.299-0.335,0.579-0.671,0.857-1.025c0.02-0.037,0.057-0.074,0.075-0.093c0.018-0.037,0.038-0.056,0.075-0.093
				c0.167-0.206,0.335-0.41,0.502-0.597c0.168-0.205,0.337-0.41,0.485-0.615V43.398z"/>
		</g>
		<g>
			<path fill="#FFFFFF" d="M0.083,71.132h2.438v11.903H0.083V71.132z"/>
			<path fill="#FFFFFF" d="M4.514,83.035v-5.759c0-1.294-0.021-2.254-0.063-2.877h2.092l0.079,1.642h0.063
				c0.188-0.594,0.481-1.049,0.877-1.364s0.816-0.473,1.262-0.473c0.246,0,0.42,0.019,0.519,0.054v2.561
				c-0.204-0.059-0.425-0.089-0.66-0.089c-0.451,0-0.852,0.144-1.204,0.428c-0.352,0.286-0.527,0.791-0.527,1.515v4.363H4.514z"/>
			<path fill="#FFFFFF" d="M16.958,77.931v3.002c0,0.872,0.042,1.571,0.126,2.103h-2.187l-0.142-0.866h-0.063
				c-0.53,0.706-1.28,1.06-2.25,1.06c-0.755,0-1.369-0.257-1.841-0.772c-0.472-0.516-0.708-1.141-0.708-1.877
				c0-1.071,0.399-1.892,1.199-2.464c0.801-0.57,1.947-0.855,3.442-0.855v-0.106c0-0.719-0.482-1.077-1.447-1.077
				c-0.787,0-1.517,0.218-2.187,0.653l-0.457-1.73c0.854-0.53,1.877-0.795,3.068-0.795c1.133,0,1.991,0.32,2.572,0.963
				C16.668,75.809,16.958,76.729,16.958,77.931z M14.615,79.838v-0.884c-1.543,0-2.313,0.449-2.313,1.343
				c0,0.324,0.086,0.575,0.259,0.755s0.412,0.27,0.716,0.27c0.33,0,0.636-0.13,0.917-0.389
				C14.474,80.674,14.615,80.309,14.615,79.838z"/>
			<path fill="#FFFFFF" d="M18.763,83.035v-5.864c0-0.853-0.021-1.777-0.064-2.771h2.109l0.11,1.218h0.062
				c0.571-0.941,1.385-1.413,2.438-1.413c0.865,0,1.554,0.329,2.065,0.985c0.511,0.656,0.767,1.582,0.767,2.777v5.068h-2.438v-4.717
				c0-1.283-0.425-1.924-1.275-1.924c-0.345,0-0.655,0.147-0.928,0.441s-0.409,0.711-0.409,1.254v4.945H18.763z"/>
			<path fill="#FFFFFF" d="M30.611,71.838c0,0.412-0.126,0.754-0.378,1.024c-0.251,0.271-0.582,0.406-0.992,0.406
				c-0.409,0-0.739-0.136-0.991-0.406c-0.251-0.271-0.376-0.612-0.376-1.024c0-0.411,0.126-0.753,0.381-1.024
				c0.255-0.271,0.584-0.406,0.987-0.406c0.405,0,0.733,0.136,0.987,0.406C30.483,71.085,30.611,71.427,30.611,71.838z
				 M30.47,83.035h-2.439v-8.636h2.439V83.035z"/>
			<path fill="#FFFFFF" d="M38.873,77.931v3.002c0,0.872,0.041,1.571,0.125,2.103h-2.187l-0.141-0.866h-0.062
				c-0.53,0.706-1.281,1.06-2.25,1.06c-0.755,0-1.369-0.257-1.841-0.772c-0.472-0.516-0.708-1.141-0.708-1.877
				c0-1.071,0.4-1.892,1.2-2.464c0.8-0.57,1.947-0.855,3.441-0.855v-0.106c0-0.719-0.483-1.077-1.448-1.077
				c-0.786,0-1.516,0.218-2.187,0.653l-0.457-1.73c0.855-0.53,1.877-0.795,3.068-0.795c1.133,0,1.991,0.32,2.573,0.963
				C38.582,75.809,38.873,76.729,38.873,77.931z M36.529,79.838v-0.884c-1.542,0-2.313,0.449-2.313,1.343
				c0,0.324,0.086,0.575,0.26,0.755c0.173,0.18,0.411,0.27,0.716,0.27c0.33,0,0.636-0.13,0.917-0.389
				C36.387,80.674,36.529,80.309,36.529,79.838z"/>
			<path fill="#FFFFFF" d="M40.677,83.035v-5.864c0-0.853-0.022-1.777-0.063-2.771h2.109l0.11,1.218h0.062
				c0.571-0.941,1.385-1.413,2.438-1.413c0.865,0,1.553,0.329,2.065,0.985c0.511,0.656,0.767,1.582,0.767,2.777v5.068h-2.438v-4.717
				c0-1.283-0.425-1.924-1.274-1.924c-0.346,0-0.655,0.147-0.928,0.441s-0.41,0.711-0.41,1.254v4.945H40.677z"/>
			<path fill="#FFFFFF" d="M62.845,83.035c-0.168-4.722-0.252-7.925-0.252-9.608h-0.048c-0.257,1.266-1.116,4.403-2.58,9.413h-1.904
				c-0.876-3.455-1.4-5.574-1.574-6.357c-0.173-0.782-0.372-1.802-0.598-3.056h-0.031c-0.069,2.378-0.126,4.092-0.173,5.139
				l-0.205,4.47h-2.265l0.676-11.903h3.304c0.813,3.037,1.302,4.916,1.467,5.638c0.166,0.722,0.333,1.579,0.5,2.574h0.062
				c0.389-1.843,0.719-3.224,0.991-4.143l1.212-4.069h3.24l0.567,11.903H62.845z"/>
			<path fill="#FFFFFF" d="M73.573,77.931v3.002c0,0.872,0.042,1.571,0.126,2.103h-2.187l-0.142-0.866h-0.062
				c-0.53,0.706-1.28,1.06-2.25,1.06c-0.755,0-1.369-0.257-1.841-0.772c-0.472-0.516-0.708-1.141-0.708-1.877
				c0-1.071,0.4-1.892,1.2-2.464c0.8-0.57,1.947-0.855,3.441-0.855v-0.106c0-0.719-0.482-1.077-1.448-1.077
				c-0.786,0-1.516,0.218-2.187,0.653l-0.456-1.73c0.854-0.53,1.877-0.795,3.068-0.795c1.132,0,1.991,0.32,2.573,0.963
				C73.282,75.809,73.573,76.729,73.573,77.931z M71.229,79.838v-0.884c-1.542,0-2.313,0.449-2.313,1.343
				c0,0.324,0.087,0.575,0.26,0.755c0.172,0.18,0.412,0.27,0.715,0.27c0.331,0,0.636-0.13,0.917-0.389
				C71.088,80.674,71.229,80.309,71.229,79.838z"/>
			<path fill="#FFFFFF" d="M81.013,80.809l0.299,1.996c-0.593,0.282-1.343,0.424-2.25,0.424c-1.269,0-2.281-0.401-3.036-1.205
				c-0.756-0.804-1.133-1.88-1.133-3.228s0.406-2.45,1.219-3.308c0.812-0.856,1.911-1.284,3.296-1.284
				c0.708,0,1.342,0.118,1.904,0.354l-0.394,2.013c-0.399-0.188-0.865-0.283-1.4-0.283c-0.634,0-1.147,0.225-1.538,0.672
				c-0.392,0.448-0.586,1.024-0.586,1.73c0,0.736,0.203,1.321,0.61,1.753c0.406,0.434,0.926,0.648,1.561,0.648
				C80.084,81.091,80.567,80.998,81.013,80.809z"/>
			<path fill="#FFFFFF" d="M85.201,71.838c0,0.412-0.126,0.754-0.378,1.024s-0.582,0.406-0.992,0.406
				c-0.409,0-0.739-0.136-0.991-0.406c-0.251-0.271-0.377-0.612-0.377-1.024c0-0.411,0.127-0.753,0.381-1.024
				c0.254-0.271,0.583-0.406,0.987-0.406c0.405,0,0.733,0.136,0.987,0.406C85.073,71.085,85.201,71.427,85.201,71.838z
				 M85.059,83.035h-2.438v-8.636h2.438V83.035z"/>
			<path fill="#FFFFFF" d="M86.91,83.035v-5.864c0-0.853-0.021-1.777-0.063-2.771h2.109l0.11,1.218h0.062
				c0.571-0.941,1.385-1.413,2.438-1.413c0.865,0,1.554,0.329,2.065,0.985c0.511,0.656,0.767,1.582,0.767,2.777v5.068H91.96v-4.717
				c0-1.283-0.425-1.924-1.275-1.924c-0.346,0-0.655,0.147-0.928,0.441c-0.274,0.294-0.41,0.711-0.41,1.254v4.945H86.91z"/>
			<path fill="#FFFFFF" d="M96.454,72.774l2.375-0.725v2.35h1.746v2.012h-1.746v3.038c0,0.571,0.074,0.973,0.224,1.206
				c0.148,0.231,0.394,0.349,0.735,0.349c0.315,0,0.562-0.029,0.74-0.089l0.016,2.066c-0.383,0.164-0.913,0.247-1.589,0.247
				c-0.734,0-1.334-0.246-1.802-0.737c-0.466-0.491-0.699-1.358-0.699-2.6v-3.48h-1.039v-2.012h1.039V72.774z"/>
			<path fill="#FFFFFF" d="M109.712,78.619c0,1.413-0.396,2.533-1.188,3.365c-0.792,0.829-1.787,1.244-2.982,1.244
				c-1.206,0-2.194-0.408-2.966-1.224c-0.771-0.814-1.156-1.891-1.156-3.228c0-1.37,0.388-2.476,1.164-3.315
				c0.776-0.838,1.804-1.258,3.084-1.258c1.195,0,2.168,0.412,2.918,1.237C109.337,76.266,109.712,77.324,109.712,78.619z
				 M103.923,78.726c0,0.765,0.149,1.384,0.444,1.854c0.297,0.471,0.693,0.707,1.192,0.707c0.488,0,0.88-0.233,1.176-0.697
				c0.295-0.466,0.444-1.093,0.444-1.881c0-0.754-0.142-1.369-0.425-1.847c-0.283-0.476-0.677-0.714-1.181-0.714
				c-0.519,0-0.923,0.239-1.215,0.72C104.068,77.347,103.923,77.967,103.923,78.726z"/>
			<path fill="#FFFFFF" d="M110.597,82.61l0.44-1.942c0.284,0.183,0.631,0.336,1.043,0.463s0.777,0.19,1.098,0.19
				c0.702,0,1.054-0.235,1.054-0.706c0-0.235-0.085-0.418-0.255-0.549c-0.171-0.129-0.474-0.271-0.909-0.423
				c-1.511-0.523-2.267-1.384-2.267-2.578c0-0.83,0.295-1.515,0.886-2.053c0.59-0.539,1.365-0.809,2.325-0.809
				c0.838,0,1.584,0.172,2.233,0.513l-0.424,1.872c-0.608-0.329-1.186-0.495-1.73-0.495c-0.629,0-0.944,0.23-0.944,0.688
				c0,0.207,0.095,0.38,0.288,0.521c0.191,0.142,0.525,0.298,1.002,0.469c0.734,0.26,1.274,0.602,1.621,1.028s0.52,0.968,0.52,1.62
				c0,0.854-0.3,1.535-0.897,2.045c-0.598,0.509-1.432,0.764-2.501,0.764C112.191,83.229,111.332,83.022,110.597,82.61z"/>
			<path fill="#FFFFFF" d="M117.989,83.035V70.461h2.438v4.997h0.031c0.236-0.364,0.555-0.665,0.956-0.9
				c0.401-0.235,0.828-0.354,1.279-0.354c0.854,0,1.533,0.333,2.033,0.997c0.5,0.667,0.751,1.611,0.751,2.835v4.999h-2.438v-4.68
				c0-1.297-0.43-1.944-1.291-1.944c-0.356,0-0.666,0.137-0.928,0.411c-0.262,0.273-0.394,0.649-0.394,1.126v5.087H117.989z"/>
			<path fill="#FFFFFF" d="M130.749,71.132h2.438v6.746c0,1.036,0.174,1.828,0.52,2.375c0.346,0.546,0.844,0.821,1.495,0.821
				c1.374,0,2.061-1.066,2.061-3.196v-6.746h2.439v6.604c0,1.795-0.391,3.159-1.172,4.093s-1.917,1.399-3.406,1.399
				c-2.916,0-4.374-1.842-4.374-5.527V71.132z"/>
			<path fill="#FFFFFF" d="M141.032,82.61l0.44-1.942c0.283,0.183,0.631,0.336,1.043,0.463c0.411,0.127,0.777,0.19,1.097,0.19
				c0.703,0,1.054-0.235,1.054-0.706c0-0.235-0.086-0.418-0.256-0.549c-0.171-0.129-0.474-0.271-0.908-0.423
				c-1.511-0.523-2.266-1.384-2.266-2.578c0-0.83,0.294-1.515,0.885-2.053c0.59-0.539,1.365-0.809,2.324-0.809
				c0.839,0,1.584,0.172,2.234,0.513l-0.424,1.872c-0.608-0.329-1.186-0.495-1.73-0.495c-0.629,0-0.945,0.23-0.945,0.688
				c0,0.207,0.096,0.38,0.288,0.521c0.192,0.142,0.526,0.298,1.003,0.469c0.734,0.26,1.274,0.602,1.621,1.028
				s0.519,0.968,0.519,1.62c0,0.854-0.299,1.535-0.897,2.045c-0.597,0.509-1.432,0.764-2.501,0.764
				C142.626,83.229,141.766,83.022,141.032,82.61z"/>
			<path fill="#FFFFFF" d="M155.36,79.59h-5.114c0.042,0.513,0.272,0.911,0.688,1.196c0.417,0.286,0.938,0.43,1.562,0.43
				c0.797,0,1.531-0.125,2.203-0.372l0.314,1.819c-0.799,0.376-1.752,0.565-2.863,0.565c-1.317,0-2.348-0.394-3.096-1.183
				c-0.747-0.79-1.121-1.866-1.121-3.233c0-1.254,0.359-2.334,1.078-3.243c0.718-0.91,1.686-1.365,2.902-1.365
				c1.122,0,1.992,0.405,2.612,1.219c0.618,0.812,0.928,1.854,0.928,3.126C155.454,78.967,155.423,79.313,155.36,79.59z
				 M150.231,77.72h2.956c0-0.407-0.104-0.795-0.317-1.163c-0.213-0.367-0.573-0.551-1.082-0.551c-0.419,0-0.767,0.158-1.042,0.473
				C150.471,76.794,150.299,77.206,150.231,77.72z"/>
			<path fill="#FFFFFF" d="M156.844,83.035v-5.759c0-1.294-0.021-2.254-0.063-2.877h2.093l0.078,1.642h0.062
				c0.19-0.594,0.482-1.049,0.877-1.364c0.397-0.315,0.817-0.473,1.264-0.473c0.246,0,0.419,0.019,0.52,0.054v2.561
				c-0.205-0.059-0.425-0.089-0.661-0.089c-0.451,0-0.853,0.144-1.203,0.428c-0.351,0.286-0.527,0.791-0.527,1.515v4.363H156.844z"
				/>
			<path fill="#FFFFFF" d="M175.502,76.2v6.27c-1.285,0.459-2.518,0.688-3.697,0.688c-1.992,0-3.489-0.553-4.491-1.656
				c-1.003-1.104-1.503-2.529-1.503-4.277c0-1.89,0.573-3.398,1.719-4.525c1.146-1.128,2.654-1.69,4.526-1.69
				c1.28,0,2.309,0.199,3.085,0.6l-0.519,2.155c-0.719-0.354-1.59-0.531-2.612-0.531c-1.107,0-1.989,0.341-2.646,1.021
				c-0.658,0.681-0.987,1.618-0.987,2.812c0,1.183,0.32,2.13,0.963,2.838c0.642,0.711,1.49,1.064,2.546,1.064
				c0.597,0,1.017-0.06,1.257-0.176v-2.474h-1.714V76.2H175.502z"/>
			<path fill="#FFFFFF" d="M177.327,83.035v-5.759c0-1.294-0.021-2.254-0.062-2.877h2.092l0.078,1.642h0.063
				c0.188-0.594,0.481-1.049,0.878-1.364c0.395-0.315,0.816-0.473,1.263-0.473c0.246,0,0.419,0.019,0.519,0.054v2.561
				c-0.205-0.059-0.426-0.089-0.661-0.089c-0.45,0-0.853,0.144-1.203,0.428c-0.352,0.286-0.527,0.791-0.527,1.515v4.363H177.327z"/>
			<path fill="#FFFFFF" d="M191.177,78.619c0,1.413-0.396,2.533-1.188,3.365c-0.793,0.829-1.786,1.244-2.982,1.244
				c-1.205,0-2.194-0.408-2.965-1.224c-0.771-0.814-1.156-1.891-1.156-3.228c0-1.37,0.389-2.476,1.164-3.315
				c0.776-0.838,1.805-1.258,3.084-1.258c1.196,0,2.169,0.412,2.918,1.237C190.803,76.266,191.177,77.324,191.177,78.619z
				 M185.387,78.726c0,0.765,0.149,1.384,0.445,1.854c0.296,0.471,0.693,0.707,1.191,0.707c0.489,0,0.88-0.233,1.176-0.697
				c0.297-0.466,0.445-1.093,0.445-1.881c0-0.754-0.142-1.369-0.425-1.847c-0.283-0.476-0.678-0.714-1.18-0.714
				c-0.52,0-0.925,0.239-1.216,0.72C185.533,77.347,185.387,77.967,185.387,78.726z"/>
			<path fill="#FFFFFF" d="M199.985,74.399v5.846c0,0.923,0.021,1.853,0.063,2.79h-2.108l-0.11-1.254h-0.062
				c-0.546,0.965-1.369,1.447-2.471,1.447c-0.88,0-1.565-0.322-2.054-0.968c-0.486-0.643-0.73-1.575-0.73-2.794v-5.067h2.439v4.608
				c0,1.354,0.418,2.03,1.257,2.03c0.352,0,0.662-0.144,0.933-0.432c0.271-0.289,0.406-0.656,0.406-1.104v-5.104H199.985z"/>
			<path fill="#FFFFFF" d="M201.834,86.531v-9.219c0-0.883-0.021-1.854-0.063-2.913h2.125l0.11,1.234
				c0.634-0.953,1.536-1.43,2.705-1.43c0.908,0,1.683,0.404,2.325,1.215c0.644,0.809,0.964,1.864,0.964,3.165
				c0,1.424-0.352,2.555-1.055,3.391c-0.702,0.836-1.558,1.254-2.564,1.254c-0.445,0-0.856-0.091-1.23-0.27
				c-0.375-0.18-0.657-0.425-0.846-0.737h-0.032v4.31H201.834z M204.272,78.214v1.059c0,0.371,0.057,0.685,0.17,0.94
				c0.112,0.256,0.293,0.476,0.539,0.657c0.246,0.183,0.519,0.275,0.817,0.275c0.531,0,0.951-0.219,1.263-0.654
				s0.468-1.024,0.468-1.766c0-0.724-0.149-1.306-0.451-1.744c-0.303-0.438-0.712-0.657-1.23-0.657c-0.427,0-0.795,0.18-1.107,0.537
				C204.43,77.222,204.272,77.672,204.272,78.214z"/>
		</g>
	</g>
</g>
<g>
	
		<radialGradient id="SVGID_1_" cx="292.0029" cy="82.4268" r="107.4281" gradientTransform="matrix(1 0 0 -1 0 101)" gradientUnits="userSpaceOnUse">
		<stop  offset="0" style="stop-color:#006595"/>
		<stop  offset="0.7301" style="stop-color:#00A6DE"/>
		<stop  offset="1" style="stop-color:#006595"/>
	</radialGradient>
	<path fill="url(#SVGID_1_)" d="M252.651,99c0,0-3.553-5.285-3.385-5.766c0.169-0.48,13.231-4.764,27.623-3.007
		c7.393,0.902,10.979,2.262,10.979,2.262s-16.717,0.737-27.73,3.835C256.505,97.346,252.651,99,252.651,99z"/>
	<path fill="#FFFFFF" d="M303.999,79.347c0,2.944-2.388,5.332-5.332,5.332h-65.171c-2.945,0-5.332-2.388-5.332-5.332V14.176
		c0-2.946,2.387-5.332,5.332-5.332h65.171c2.944,0,5.332,2.386,5.332,5.332V79.347z"/>
	<g>
		
			<radialGradient id="SVGID_2_" cx="320.3887" cy="112.4971" r="144.9792" gradientTransform="matrix(1 0 0 -1 0 101)" gradientUnits="userSpaceOnUse">
			<stop  offset="0" style="stop-color:#006595"/>
			<stop  offset="0.7301" style="stop-color:#00A6DE"/>
			<stop  offset="1" style="stop-color:#006595"/>
		</radialGradient>
		<path fill="url(#SVGID_2_)" d="M254.414,8.844h-5.757c-2.785,2.284-15.501,12.734-18.288,15.34c0,0-0.975,0.894-2.205,2.095v4.543
			c0.179-0.172,0.361-0.344,0.555-0.517C228.719,30.305,243.705,17.788,254.414,8.844z"/>
		
			<radialGradient id="SVGID_3_" cx="320.3896" cy="112.4971" r="144.9807" gradientTransform="matrix(1 0 0 -1 0 101)" gradientUnits="userSpaceOnUse">
			<stop  offset="0" style="stop-color:#006595"/>
			<stop  offset="0.7301" style="stop-color:#00A6DE"/>
			<stop  offset="1" style="stop-color:#006595"/>
		</radialGradient>
		<path fill="url(#SVGID_3_)" d="M228.719,18.888c0,0,6.348-5.192,12.28-10.044h-7.503c-2.945,0-5.332,2.386-5.332,5.332v5.229
			C228.343,19.232,228.525,19.062,228.719,18.888z"/>
		
			<radialGradient id="SVGID_4_" cx="320.3906" cy="112.502" r="144.9891" gradientTransform="matrix(1 0 0 -1 0 101)" gradientUnits="userSpaceOnUse">
			<stop  offset="0" style="stop-color:#006595"/>
			<stop  offset="0.7301" style="stop-color:#00A6DE"/>
			<stop  offset="1" style="stop-color:#006595"/>
		</radialGradient>
		<path fill="url(#SVGID_4_)" d="M296.212,78.161c-1.862,2.824-4.252,4.979-6.361,6.518h8.816c2.944,0,5.332-2.388,5.332-5.332
			V61.003C302.679,66.897,299.533,73.121,296.212,78.161z"/>
		
			<radialGradient id="SVGID_5_" cx="320.3906" cy="112.4971" r="144.9804" gradientTransform="matrix(1 0 0 -1 0 101)" gradientUnits="userSpaceOnUse">
			<stop  offset="0" style="stop-color:#006595"/>
			<stop  offset="0.7301" style="stop-color:#00A6DE"/>
			<stop  offset="1" style="stop-color:#006595"/>
		</radialGradient>
		<path fill="url(#SVGID_5_)" d="M267.62,75.495c2.625-2.814,4.782-5.731,6.314-8.533c0.896-1.787,2.225-4.751,3.137-7.365
			c2.963-8.491,9.353-11.226,10.876-11.939c1.783-0.834,5.173-2.188,4.777-0.015c-0.396,2.172-1.65,6.237-3.625,8.903
			c-1.976,2.666-4.758,3.124-6.929,6.729c-0.448,0.743-1.205,2.682-1.552,3.466c-1.416,3.955-3.757,8.408-5.741,11.42
			c-1.861,2.824-4.251,4.979-6.361,6.518h16.797c0.59-2.891,1.735-7.141,3.642-9.184c5.445-5.84,8.887-12.128,8.887-16.885
			c0-4.758-0.003-9.075,0-13.923c0.003-5.863,5.514-19.064,6.158-20.587v-9.924c0-2.946-2.388-5.332-5.332-5.332h-36.785
			c-5.644,4.741-28.764,24.186-31.513,26.757c0,0-0.975,0.894-2.206,2.095v33.645c4.798-1.573,13.469-7.974,13.469-12.73
			s-0.003-9.074,0-13.923c0.003-6.228,6.221-20.736,6.221-20.736s2.335,0.995,1.663,4.68c-0.344,1.89-1.07,8.131-1.07,15.167
			c0,7.037,0.062,8.776,0,12.145c-0.135,7.203-3.321,14.416-7.617,20.934c-2.097,3.183-5.165,5.866-7.757,7.779
			c0.141,0.013,0.281,0.022,0.425,0.022h30.482C264.569,81.788,265.715,77.538,267.62,75.495z M258.866,29.503
			c1.934-5.703,6.646-5.604,6.646-5.604s-2.866,10.104-3.911,14.2c-3.402,13.337,3.504,11.575,3.504,11.575l1.268-3.41
			c1.176-0.217,7.896-1.667,6.673,6.061c-1.395,8.809-2.495,12.386-6.164,14.072c-1.701,0.781-7.355,1.72-11.142-2.111
			C248.885,57.35,256.931,35.206,258.866,29.503z"/>
	</g>
	<g>
		<path fill="#8ED8F8" d="M265.001,0c0,0,2.452,4.009-1.879,7.801c0,0-29.618,24.87-32.753,27.8c0,0-4.987,4.569-6.637,6.938
			c0,0-2.164-5.817,4.986-12.234L265.001,0z"/>
		<path fill="#8ED8F8" d="M251.084,0.593c0,0,2.452,4.009-1.879,7.801c0,0-15.701,12.859-18.836,15.79c0,0-4.987,4.57-6.637,6.939
			c0,0-2.164-5.817,4.986-12.234C228.719,18.888,251.084,0.593,251.084,0.593z"/>
	</g>
</g>
</svg>
